<svg width="1280" height="640" viewBox="0 0 1280 640" fill="none" xmlns="http://www.w3.org/2000/svg">
<rect width="1280" height="640" fill="white"/>
<path d="M303.076 521.172L299.908 512.514C299.752 512.13 299.59 511.674 299.422 511.146C299.254 510.618 299.086 510.048 298.918 509.436C298.762 510.048 298.6 510.624 298.432 511.164C298.264 511.692 298.102 512.154 297.946 512.55L294.796 521.172H303.076ZM311.626 531H307.882C307.462 531 307.12 530.898 306.856 530.694C306.592 530.478 306.394 530.214 306.262 529.902L304.318 524.592H293.536L291.592 529.902C291.496 530.178 291.31 530.43 291.034 530.658C290.758 530.886 290.416 531 290.008 531H286.228L296.47 504.972H301.402L311.626 531ZM324.823 517.248C324.319 516.636 323.767 516.204 323.167 515.952C322.579 515.7 321.943 515.574 321.259 515.574C320.587 515.574 319.981 515.7 319.441 515.952C318.901 516.204 318.439 516.588 318.055 517.104C317.671 517.608 317.377 518.256 317.173 519.048C316.969 519.828 316.867 520.752 316.867 521.82C316.867 522.9 316.951 523.818 317.119 524.574C317.299 525.318 317.551 525.93 317.875 526.41C318.199 526.878 318.595 527.22 319.063 527.436C319.531 527.64 320.053 527.742 320.629 527.742C321.553 527.742 322.339 527.55 322.987 527.166C323.635 526.782 324.247 526.236 324.823 525.528V517.248ZM329.269 504.252V531H326.551C325.963 531 325.591 530.73 325.435 530.19L325.057 528.408C324.313 529.26 323.455 529.95 322.483 530.478C321.523 531.006 320.401 531.27 319.117 531.27C318.109 531.27 317.185 531.06 316.345 530.64C315.505 530.22 314.779 529.614 314.167 528.822C313.567 528.018 313.099 527.028 312.763 525.852C312.439 524.676 312.277 523.332 312.277 521.82C312.277 520.452 312.463 519.18 312.835 518.004C313.207 516.828 313.741 515.808 314.437 514.944C315.133 514.08 315.967 513.408 316.939 512.928C317.911 512.436 319.003 512.19 320.215 512.19C321.247 512.19 322.129 512.352 322.861 512.676C323.593 513 324.247 513.438 324.823 513.99V504.252H329.269ZM350.307 512.532L342.981 531H338.949L331.623 512.532H335.295C335.631 512.532 335.907 512.61 336.123 512.766C336.351 512.922 336.501 513.12 336.573 513.36L340.137 523.224C340.329 523.8 340.497 524.364 340.641 524.916C340.785 525.468 340.911 526.02 341.019 526.572C341.139 526.02 341.271 525.468 341.415 524.916C341.559 524.364 341.733 523.8 341.937 523.224L345.573 513.36C345.657 513.12 345.807 512.922 346.023 512.766C346.239 512.61 346.497 512.532 346.797 512.532H350.307ZM361.975 523.116C360.691 523.176 359.611 523.29 358.735 523.458C357.859 523.614 357.157 523.818 356.629 524.07C356.101 524.322 355.723 524.616 355.495 524.952C355.267 525.288 355.153 525.654 355.153 526.05C355.153 526.83 355.381 527.388 355.837 527.724C356.305 528.06 356.911 528.228 357.655 528.228C358.567 528.228 359.353 528.066 360.013 527.742C360.685 527.406 361.339 526.902 361.975 526.23V523.116ZM351.787 515.106C353.911 513.162 356.467 512.19 359.455 512.19C360.535 512.19 361.501 512.37 362.353 512.73C363.205 513.078 363.925 513.57 364.513 514.206C365.101 514.83 365.545 515.58 365.845 516.456C366.157 517.332 366.313 518.292 366.313 519.336V531H364.297C363.877 531 363.553 530.94 363.325 530.82C363.097 530.688 362.917 530.43 362.785 530.046L362.389 528.714C361.921 529.134 361.465 529.506 361.021 529.83C360.577 530.142 360.115 530.406 359.635 530.622C359.155 530.838 358.639 531 358.087 531.108C357.547 531.228 356.947 531.288 356.287 531.288C355.507 531.288 354.787 531.186 354.127 530.982C353.467 530.766 352.897 530.448 352.417 530.028C351.937 529.608 351.565 529.086 351.301 528.462C351.037 527.838 350.905 527.112 350.905 526.284C350.905 525.816 350.983 525.354 351.139 524.898C351.295 524.43 351.547 523.986 351.895 523.566C352.255 523.146 352.717 522.75 353.281 522.378C353.845 522.006 354.535 521.682 355.351 521.406C356.179 521.13 357.139 520.908 358.231 520.74C359.323 520.56 360.571 520.452 361.975 520.416V519.336C361.975 518.1 361.711 517.188 361.183 516.6C360.655 516 359.893 515.7 358.897 515.7C358.177 515.7 357.577 515.784 357.097 515.952C356.629 516.12 356.215 516.312 355.855 516.528C355.495 516.732 355.165 516.918 354.865 517.086C354.577 517.254 354.253 517.338 353.893 517.338C353.581 517.338 353.317 517.26 353.101 517.104C352.885 516.936 352.711 516.744 352.579 516.528L351.787 515.106ZM374.659 514.8C375.031 514.428 375.421 514.086 375.829 513.774C376.249 513.45 376.687 513.18 377.143 512.964C377.611 512.736 378.109 512.562 378.637 512.442C379.165 512.31 379.741 512.244 380.365 512.244C381.373 512.244 382.267 512.418 383.047 512.766C383.827 513.102 384.475 513.582 384.991 514.206C385.519 514.818 385.915 515.556 386.179 516.42C386.455 517.272 386.593 518.214 386.593 519.246V531H382.147V519.246C382.147 518.118 381.889 517.248 381.373 516.636C380.857 516.012 380.071 515.7 379.015 515.7C378.247 515.7 377.527 515.874 376.855 516.222C376.183 516.57 375.547 517.044 374.947 517.644V531H370.501V512.532H373.219C373.795 512.532 374.173 512.802 374.353 513.342L374.659 514.8ZM404.051 516.438C403.919 516.606 403.787 516.738 403.655 516.834C403.535 516.93 403.355 516.978 403.115 516.978C402.887 516.978 402.665 516.912 402.449 516.78C402.233 516.636 401.975 516.48 401.675 516.312C401.375 516.132 401.015 515.976 400.595 515.844C400.187 515.7 399.677 515.628 399.065 515.628C398.285 515.628 397.601 515.772 397.013 516.06C396.425 516.336 395.933 516.738 395.537 517.266C395.153 517.794 394.865 518.436 394.673 519.192C394.481 519.936 394.385 520.782 394.385 521.73C394.385 522.714 394.487 523.59 394.691 524.358C394.907 525.126 395.213 525.774 395.609 526.302C396.005 526.818 396.485 527.214 397.049 527.49C397.613 527.754 398.249 527.886 398.957 527.886C399.665 527.886 400.235 527.802 400.667 527.634C401.111 527.454 401.483 527.262 401.783 527.058C402.083 526.842 402.341 526.65 402.557 526.482C402.785 526.302 403.037 526.212 403.313 526.212C403.673 526.212 403.943 526.35 404.123 526.626L405.401 528.246C404.909 528.822 404.375 529.308 403.799 529.704C403.223 530.088 402.623 530.4 401.999 530.64C401.387 530.868 400.751 531.03 400.091 531.126C399.443 531.222 398.795 531.27 398.147 531.27C397.007 531.27 395.933 531.06 394.925 530.64C393.917 530.208 393.035 529.584 392.279 528.768C391.523 527.952 390.923 526.956 390.479 525.78C390.047 524.592 389.831 523.242 389.831 521.73C389.831 520.374 390.023 519.12 390.407 517.968C390.803 516.804 391.379 515.802 392.135 514.962C392.891 514.11 393.827 513.444 394.943 512.964C396.059 512.484 397.343 512.244 398.795 512.244C400.175 512.244 401.381 512.466 402.413 512.91C403.457 513.354 404.393 513.99 405.221 514.818L404.051 516.438ZM419.77 519.642C419.77 519.066 419.686 518.526 419.518 518.022C419.362 517.506 419.122 517.056 418.798 516.672C418.474 516.288 418.06 515.988 417.556 515.772C417.064 515.544 416.488 515.43 415.828 515.43C414.544 515.43 413.53 515.796 412.786 516.528C412.054 517.26 411.586 518.298 411.382 519.642H419.77ZM411.292 522.324C411.364 523.272 411.532 524.094 411.796 524.79C412.06 525.474 412.408 526.044 412.84 526.5C413.272 526.944 413.782 527.28 414.37 527.508C414.97 527.724 415.63 527.832 416.35 527.832C417.07 527.832 417.688 527.748 418.204 527.58C418.732 527.412 419.188 527.226 419.572 527.022C419.968 526.818 420.31 526.632 420.598 526.464C420.898 526.296 421.186 526.212 421.462 526.212C421.834 526.212 422.11 526.35 422.29 526.626L423.568 528.246C423.076 528.822 422.524 529.308 421.912 529.704C421.3 530.088 420.658 530.4 419.986 530.64C419.326 530.868 418.648 531.03 417.952 531.126C417.268 531.222 416.602 531.27 415.954 531.27C414.67 531.27 413.476 531.06 412.372 530.64C411.268 530.208 410.308 529.578 409.492 528.75C408.676 527.91 408.034 526.878 407.566 525.654C407.098 524.418 406.864 522.99 406.864 521.37C406.864 520.11 407.068 518.928 407.476 517.824C407.884 516.708 408.466 515.742 409.222 514.926C409.99 514.098 410.92 513.444 412.012 512.964C413.116 512.484 414.358 512.244 415.738 512.244C416.902 512.244 417.976 512.43 418.96 512.802C419.944 513.174 420.79 513.72 421.498 514.44C422.206 515.148 422.758 516.024 423.154 517.068C423.562 518.1 423.766 519.282 423.766 520.614C423.766 521.286 423.694 521.742 423.55 521.982C423.406 522.21 423.13 522.324 422.722 522.324H411.292ZM438.694 517.248C438.19 516.636 437.638 516.204 437.038 515.952C436.45 515.7 435.814 515.574 435.13 515.574C434.458 515.574 433.852 515.7 433.312 515.952C432.772 516.204 432.31 516.588 431.926 517.104C431.542 517.608 431.248 518.256 431.044 519.048C430.84 519.828 430.738 520.752 430.738 521.82C430.738 522.9 430.822 523.818 430.99 524.574C431.17 525.318 431.422 525.93 431.746 526.41C432.07 526.878 432.466 527.22 432.934 527.436C433.402 527.64 433.924 527.742 434.5 527.742C435.424 527.742 436.21 527.55 436.858 527.166C437.506 526.782 438.118 526.236 438.694 525.528V517.248ZM443.14 504.252V531H440.422C439.834 531 439.462 530.73 439.306 530.19L438.928 528.408C438.184 529.26 437.326 529.95 436.354 530.478C435.394 531.006 434.272 531.27 432.988 531.27C431.98 531.27 431.056 531.06 430.216 530.64C429.376 530.22 428.65 529.614 428.038 528.822C427.438 528.018 426.97 527.028 426.634 525.852C426.31 524.676 426.148 523.332 426.148 521.82C426.148 520.452 426.334 519.18 426.706 518.004C427.078 516.828 427.612 515.808 428.308 514.944C429.004 514.08 429.838 513.408 430.81 512.928C431.782 512.436 432.874 512.19 434.086 512.19C435.118 512.19 436 512.352 436.732 512.676C437.464 513 438.118 513.438 438.694 513.99V504.252H443.14ZM467.55 516.132C467.43 516.324 467.304 516.462 467.172 516.546C467.04 516.618 466.872 516.654 466.668 516.654C466.452 516.654 466.218 516.594 465.966 516.474C465.726 516.354 465.444 516.222 465.12 516.078C464.796 515.922 464.424 515.784 464.004 515.664C463.596 515.544 463.11 515.484 462.546 515.484C461.67 515.484 460.98 515.67 460.476 516.042C459.984 516.414 459.738 516.9 459.738 517.5C459.738 517.896 459.864 518.232 460.116 518.508C460.38 518.772 460.722 519.006 461.142 519.21C461.574 519.414 462.06 519.6 462.6 519.768C463.14 519.924 463.686 520.098 464.238 520.29C464.802 520.482 465.354 520.704 465.894 520.956C466.434 521.196 466.914 521.508 467.334 521.892C467.766 522.264 468.108 522.714 468.36 523.242C468.624 523.77 468.756 524.406 468.756 525.15C468.756 526.038 468.594 526.86 468.27 527.616C467.958 528.36 467.49 529.008 466.866 529.56C466.242 530.1 465.468 530.526 464.544 530.838C463.632 531.138 462.576 531.288 461.376 531.288C460.74 531.288 460.116 531.228 459.504 531.108C458.904 531 458.322 530.844 457.758 530.64C457.206 530.436 456.69 530.196 456.21 529.92C455.742 529.644 455.328 529.344 454.968 529.02L455.994 527.328C456.126 527.124 456.282 526.968 456.462 526.86C456.642 526.752 456.87 526.698 457.146 526.698C457.422 526.698 457.68 526.776 457.92 526.932C458.172 527.088 458.46 527.256 458.784 527.436C459.108 527.616 459.486 527.784 459.918 527.94C460.362 528.096 460.92 528.174 461.592 528.174C462.12 528.174 462.57 528.114 462.942 527.994C463.326 527.862 463.638 527.694 463.878 527.49C464.13 527.286 464.31 527.052 464.418 526.788C464.538 526.512 464.598 526.23 464.598 525.942C464.598 525.51 464.466 525.156 464.202 524.88C463.95 524.604 463.608 524.364 463.176 524.16C462.756 523.956 462.27 523.776 461.718 523.62C461.178 523.452 460.62 523.272 460.044 523.08C459.48 522.888 458.922 522.666 458.37 522.414C457.83 522.15 457.344 521.82 456.912 521.424C456.492 521.028 456.15 520.542 455.886 519.966C455.634 519.39 455.508 518.694 455.508 517.878C455.508 517.122 455.658 516.402 455.958 515.718C456.258 515.034 456.696 514.44 457.272 513.936C457.86 513.42 458.586 513.012 459.45 512.712C460.326 512.4 461.334 512.244 462.474 512.244C463.746 512.244 464.904 512.454 465.948 512.874C466.992 513.294 467.862 513.846 468.558 514.53L467.55 516.132ZM480.274 512.244C481.642 512.244 482.884 512.466 484 512.91C485.128 513.354 486.088 513.984 486.88 514.8C487.684 515.616 488.302 516.612 488.734 517.788C489.166 518.964 489.382 520.278 489.382 521.73C489.382 523.194 489.166 524.514 488.734 525.69C488.302 526.866 487.684 527.868 486.88 528.696C486.088 529.524 485.128 530.16 484 530.604C482.884 531.048 481.642 531.27 480.274 531.27C478.894 531.27 477.64 531.048 476.512 530.604C475.384 530.16 474.418 529.524 473.614 528.696C472.822 527.868 472.204 526.866 471.76 525.69C471.328 524.514 471.112 523.194 471.112 521.73C471.112 520.278 471.328 518.964 471.76 517.788C472.204 516.612 472.822 515.616 473.614 514.8C474.418 513.984 475.384 513.354 476.512 512.91C477.64 512.466 478.894 512.244 480.274 512.244ZM480.274 527.85C481.81 527.85 482.944 527.334 483.676 526.302C484.42 525.27 484.792 523.758 484.792 521.766C484.792 519.774 484.42 518.256 483.676 517.212C482.944 516.168 481.81 515.646 480.274 515.646C478.714 515.646 477.556 516.174 476.8 517.23C476.056 518.274 475.684 519.786 475.684 521.766C475.684 523.746 476.056 525.258 476.8 526.302C477.556 527.334 478.714 527.85 480.274 527.85ZM497.274 504.252V531H492.828V504.252H497.274ZM517.616 512.532V531H514.898C514.31 531 513.938 530.73 513.782 530.19L513.476 528.714C512.72 529.482 511.886 530.106 510.974 530.586C510.062 531.054 508.988 531.288 507.752 531.288C506.744 531.288 505.85 531.12 505.07 530.784C504.302 530.436 503.654 529.95 503.126 529.326C502.598 528.702 502.196 527.964 501.92 527.112C501.656 526.248 501.524 525.3 501.524 524.268V512.532H505.97V524.268C505.97 525.396 506.228 526.272 506.744 526.896C507.272 527.508 508.058 527.814 509.102 527.814C509.87 527.814 510.59 527.646 511.262 527.31C511.934 526.962 512.57 526.488 513.17 525.888V512.532H517.616ZM540.654 531H536.208V515.862H527.64V525.87C527.64 526.446 527.778 526.896 528.054 527.22C528.342 527.544 528.732 527.706 529.224 527.706C529.5 527.706 529.728 527.676 529.908 527.616C530.1 527.544 530.262 527.472 530.394 527.4C530.538 527.328 530.664 527.262 530.772 527.202C530.88 527.13 530.988 527.094 531.096 527.094C531.228 527.094 531.336 527.13 531.42 527.202C531.504 527.262 531.594 527.358 531.69 527.49L533.022 529.65C532.374 530.19 531.63 530.598 530.79 530.874C529.95 531.15 529.08 531.288 528.18 531.288C526.572 531.288 525.336 530.838 524.472 529.938C523.62 529.026 523.194 527.772 523.194 526.176V515.862H521.304C521.064 515.862 520.86 515.784 520.692 515.628C520.524 515.472 520.44 515.238 520.44 514.926V513.162L523.41 512.658L524.346 507.636C524.406 507.396 524.52 507.21 524.688 507.078C524.856 506.946 525.072 506.88 525.336 506.88H527.64V512.694H540.654V531ZM541.428 507.078C541.428 507.462 541.35 507.828 541.194 508.176C541.038 508.512 540.828 508.806 540.564 509.058C540.312 509.31 540.006 509.514 539.646 509.67C539.298 509.814 538.926 509.886 538.53 509.886C538.146 509.886 537.786 509.814 537.45 509.67C537.114 509.514 536.82 509.31 536.568 509.058C536.316 508.806 536.112 508.512 535.956 508.176C535.812 507.828 535.74 507.462 535.74 507.078C535.74 506.682 535.812 506.316 535.956 505.98C536.112 505.632 536.316 505.332 536.568 505.08C536.82 504.816 537.114 504.612 537.45 504.468C537.786 504.312 538.146 504.234 538.53 504.234C538.926 504.234 539.298 504.312 539.646 504.468C540.006 504.612 540.312 504.816 540.564 505.08C540.828 505.332 541.038 505.632 541.194 505.98C541.35 506.316 541.428 506.682 541.428 507.078ZM553.364 512.244C554.732 512.244 555.974 512.466 557.09 512.91C558.218 513.354 559.178 513.984 559.97 514.8C560.774 515.616 561.392 516.612 561.824 517.788C562.256 518.964 562.472 520.278 562.472 521.73C562.472 523.194 562.256 524.514 561.824 525.69C561.392 526.866 560.774 527.868 559.97 528.696C559.178 529.524 558.218 530.16 557.09 530.604C555.974 531.048 554.732 531.27 553.364 531.27C551.984 531.27 550.73 531.048 549.602 530.604C548.474 530.16 547.508 529.524 546.704 528.696C545.912 527.868 545.294 526.866 544.85 525.69C544.418 524.514 544.202 523.194 544.202 521.73C544.202 520.278 544.418 518.964 544.85 517.788C545.294 516.612 545.912 515.616 546.704 514.8C547.508 513.984 548.474 513.354 549.602 512.91C550.73 512.466 551.984 512.244 553.364 512.244ZM553.364 527.85C554.9 527.85 556.034 527.334 556.766 526.302C557.51 525.27 557.882 523.758 557.882 521.766C557.882 519.774 557.51 518.256 556.766 517.212C556.034 516.168 554.9 515.646 553.364 515.646C551.804 515.646 550.646 516.174 549.89 517.23C549.146 518.274 548.774 519.786 548.774 521.766C548.774 523.746 549.146 525.258 549.89 526.302C550.646 527.334 551.804 527.85 553.364 527.85ZM570.022 514.8C570.394 514.428 570.784 514.086 571.192 513.774C571.612 513.45 572.05 513.18 572.506 512.964C572.974 512.736 573.472 512.562 574 512.442C574.528 512.31 575.104 512.244 575.728 512.244C576.736 512.244 577.63 512.418 578.41 512.766C579.19 513.102 579.838 513.582 580.354 514.206C580.882 514.818 581.278 515.556 581.542 516.42C581.818 517.272 581.956 518.214 581.956 519.246V531H577.51V519.246C577.51 518.118 577.252 517.248 576.736 516.636C576.22 516.012 575.434 515.7 574.378 515.7C573.61 515.7 572.89 515.874 572.218 516.222C571.546 516.57 570.91 517.044 570.31 517.644V531H565.864V512.532H568.582C569.158 512.532 569.536 512.802 569.716 513.342L570.022 514.8ZM596.234 531V515.88L594.632 515.628C594.284 515.556 594.002 515.436 593.786 515.268C593.582 515.088 593.48 514.836 593.48 514.512V512.694H596.234V511.326C596.234 510.27 596.39 509.322 596.702 508.482C597.026 507.642 597.482 506.928 598.07 506.34C598.67 505.752 599.396 505.302 600.248 504.99C601.1 504.678 602.06 504.522 603.128 504.522C603.98 504.522 604.772 504.636 605.504 504.864L605.414 507.096C605.402 507.264 605.354 507.402 605.27 507.51C605.186 507.606 605.072 507.684 604.928 507.744C604.796 507.792 604.64 507.828 604.46 507.852C604.28 507.864 604.088 507.87 603.884 507.87C603.356 507.87 602.882 507.93 602.462 508.05C602.054 508.158 601.706 508.356 601.418 508.644C601.13 508.92 600.908 509.292 600.752 509.76C600.608 510.216 600.536 510.786 600.536 511.47V512.694H605.342V515.862H600.68V531H596.234ZM615.52 512.244C616.888 512.244 618.13 512.466 619.246 512.91C620.374 513.354 621.334 513.984 622.126 514.8C622.93 515.616 623.548 516.612 623.98 517.788C624.412 518.964 624.628 520.278 624.628 521.73C624.628 523.194 624.412 524.514 623.98 525.69C623.548 526.866 622.93 527.868 622.126 528.696C621.334 529.524 620.374 530.16 619.246 530.604C618.13 531.048 616.888 531.27 615.52 531.27C614.14 531.27 612.886 531.048 611.758 530.604C610.63 530.16 609.664 529.524 608.86 528.696C608.068 527.868 607.45 526.866 607.006 525.69C606.574 524.514 606.358 523.194 606.358 521.73C606.358 520.278 606.574 518.964 607.006 517.788C607.45 516.612 608.068 515.616 608.86 514.8C609.664 513.984 610.63 513.354 611.758 512.91C612.886 512.466 614.14 512.244 615.52 512.244ZM615.52 527.85C617.056 527.85 618.19 527.334 618.922 526.302C619.666 525.27 620.038 523.758 620.038 521.766C620.038 519.774 619.666 518.256 618.922 517.212C618.19 516.168 617.056 515.646 615.52 515.646C613.96 515.646 612.802 516.174 612.046 517.23C611.302 518.274 610.93 519.786 610.93 521.766C610.93 523.746 611.302 525.258 612.046 526.302C612.802 527.334 613.96 527.85 615.52 527.85ZM632.214 515.736C632.79 514.632 633.474 513.768 634.266 513.144C635.058 512.508 635.994 512.19 637.074 512.19C637.926 512.19 638.61 512.376 639.126 512.748L638.838 516.078C638.778 516.294 638.688 516.45 638.568 516.546C638.46 516.63 638.31 516.672 638.118 516.672C637.938 516.672 637.668 516.642 637.308 516.582C636.96 516.522 636.618 516.492 636.282 516.492C635.79 516.492 635.352 516.564 634.968 516.708C634.584 516.852 634.236 517.062 633.924 517.338C633.624 517.602 633.354 517.926 633.114 518.31C632.886 518.694 632.67 519.132 632.466 519.624V531H628.02V512.532H630.63C631.086 512.532 631.404 512.616 631.584 512.784C631.764 512.94 631.884 513.228 631.944 513.648L632.214 515.736ZM649.43 531V512.532H652.148C652.724 512.532 653.102 512.802 653.282 513.342L653.57 514.71C653.894 514.35 654.23 514.02 654.578 513.72C654.938 513.42 655.316 513.162 655.712 512.946C656.12 512.73 656.552 512.562 657.008 512.442C657.476 512.31 657.986 512.244 658.538 512.244C659.702 512.244 660.656 512.562 661.4 513.198C662.156 513.822 662.72 514.656 663.092 515.7C663.38 515.088 663.74 514.566 664.172 514.134C664.604 513.69 665.078 513.33 665.594 513.054C666.11 512.778 666.656 512.574 667.232 512.442C667.82 512.31 668.408 512.244 668.996 512.244C670.016 512.244 670.922 512.4 671.714 512.712C672.506 513.024 673.172 513.48 673.712 514.08C674.252 514.68 674.66 515.412 674.936 516.276C675.224 517.14 675.368 518.13 675.368 519.246V531H670.922V519.246C670.922 518.07 670.664 517.188 670.148 516.6C669.632 516 668.876 515.7 667.88 515.7C667.424 515.7 666.998 515.778 666.602 515.934C666.218 516.09 665.876 516.318 665.576 516.618C665.288 516.906 665.06 517.272 664.892 517.716C664.724 518.16 664.64 518.67 664.64 519.246V531H660.176V519.246C660.176 518.01 659.924 517.11 659.42 516.546C658.928 515.982 658.202 515.7 657.242 515.7C656.594 515.7 655.988 515.862 655.424 516.186C654.872 516.498 654.356 516.93 653.876 517.482V531H649.43ZM689.35 523.116C688.066 523.176 686.986 523.29 686.11 523.458C685.234 523.614 684.532 523.818 684.004 524.07C683.476 524.322 683.098 524.616 682.87 524.952C682.642 525.288 682.528 525.654 682.528 526.05C682.528 526.83 682.756 527.388 683.212 527.724C683.68 528.06 684.286 528.228 685.03 528.228C685.942 528.228 686.728 528.066 687.388 527.742C688.06 527.406 688.714 526.902 689.35 526.23V523.116ZM679.162 515.106C681.286 513.162 683.842 512.19 686.83 512.19C687.91 512.19 688.876 512.37 689.728 512.73C690.58 513.078 691.3 513.57 691.888 514.206C692.476 514.83 692.92 515.58 693.22 516.456C693.532 517.332 693.688 518.292 693.688 519.336V531H691.672C691.252 531 690.928 530.94 690.7 530.82C690.472 530.688 690.292 530.43 690.16 530.046L689.764 528.714C689.296 529.134 688.84 529.506 688.396 529.83C687.952 530.142 687.49 530.406 687.01 530.622C686.53 530.838 686.014 531 685.462 531.108C684.922 531.228 684.322 531.288 683.662 531.288C682.882 531.288 682.162 531.186 681.502 530.982C680.842 530.766 680.272 530.448 679.792 530.028C679.312 529.608 678.94 529.086 678.676 528.462C678.412 527.838 678.28 527.112 678.28 526.284C678.28 525.816 678.358 525.354 678.514 524.898C678.67 524.43 678.922 523.986 679.27 523.566C679.63 523.146 680.092 522.75 680.656 522.378C681.22 522.006 681.91 521.682 682.726 521.406C683.554 521.13 684.514 520.908 685.606 520.74C686.698 520.56 687.946 520.452 689.35 520.416V519.336C689.35 518.1 689.086 517.188 688.558 516.6C688.03 516 687.268 515.7 686.272 515.7C685.552 515.7 684.952 515.784 684.472 515.952C684.004 516.12 683.59 516.312 683.23 516.528C682.87 516.732 682.54 516.918 682.24 517.086C681.952 517.254 681.628 517.338 681.268 517.338C680.956 517.338 680.692 517.26 680.476 517.104C680.26 516.936 680.086 516.744 679.954 516.528L679.162 515.106ZM702.034 514.8C702.406 514.428 702.796 514.086 703.204 513.774C703.624 513.45 704.062 513.18 704.518 512.964C704.986 512.736 705.484 512.562 706.012 512.442C706.54 512.31 707.116 512.244 707.74 512.244C708.748 512.244 709.642 512.418 710.422 512.766C711.202 513.102 711.85 513.582 712.366 514.206C712.894 514.818 713.29 515.556 713.554 516.42C713.83 517.272 713.968 518.214 713.968 519.246V531H709.522V519.246C709.522 518.118 709.264 517.248 708.748 516.636C708.232 516.012 707.446 515.7 706.39 515.7C705.622 515.7 704.902 515.874 704.23 516.222C703.558 516.57 702.922 517.044 702.322 517.644V531H697.876V512.532H700.594C701.17 512.532 701.548 512.802 701.728 513.342L702.034 514.8ZM727.952 523.116C726.668 523.176 725.588 523.29 724.712 523.458C723.836 523.614 723.134 523.818 722.606 524.07C722.078 524.322 721.7 524.616 721.472 524.952C721.244 525.288 721.13 525.654 721.13 526.05C721.13 526.83 721.358 527.388 721.814 527.724C722.282 528.06 722.888 528.228 723.632 528.228C724.544 528.228 725.33 528.066 725.99 527.742C726.662 527.406 727.316 526.902 727.952 526.23V523.116ZM717.764 515.106C719.888 513.162 722.444 512.19 725.432 512.19C726.512 512.19 727.478 512.37 728.33 512.73C729.182 513.078 729.902 513.57 730.49 514.206C731.078 514.83 731.522 515.58 731.822 516.456C732.134 517.332 732.29 518.292 732.29 519.336V531H730.274C729.854 531 729.53 530.94 729.302 530.82C729.074 530.688 728.894 530.43 728.762 530.046L728.366 528.714C727.898 529.134 727.442 529.506 726.998 529.83C726.554 530.142 726.092 530.406 725.612 530.622C725.132 530.838 724.616 531 724.064 531.108C723.524 531.228 722.924 531.288 722.264 531.288C721.484 531.288 720.764 531.186 720.104 530.982C719.444 530.766 718.874 530.448 718.394 530.028C717.914 529.608 717.542 529.086 717.278 528.462C717.014 527.838 716.882 527.112 716.882 526.284C716.882 525.816 716.96 525.354 717.116 524.898C717.272 524.43 717.524 523.986 717.872 523.566C718.232 523.146 718.694 522.75 719.258 522.378C719.822 522.006 720.512 521.682 721.328 521.406C722.156 521.13 723.116 520.908 724.208 520.74C725.3 520.56 726.548 520.452 727.952 520.416V519.336C727.952 518.1 727.688 517.188 727.16 516.6C726.632 516 725.87 515.7 724.874 515.7C724.154 515.7 723.554 515.784 723.074 515.952C722.606 516.12 722.192 516.312 721.832 516.528C721.472 516.732 721.142 516.918 720.842 517.086C720.554 517.254 720.23 517.338 719.87 517.338C719.558 517.338 719.294 517.26 719.078 517.104C718.862 516.936 718.688 516.744 718.556 516.528L717.764 515.106ZM743.227 521.316C743.779 521.316 744.259 521.244 744.667 521.1C745.075 520.944 745.411 520.734 745.675 520.47C745.951 520.206 746.155 519.888 746.287 519.516C746.431 519.144 746.503 518.736 746.503 518.292C746.503 517.38 746.227 516.66 745.675 516.132C745.135 515.592 744.319 515.322 743.227 515.322C742.135 515.322 741.313 515.592 740.761 516.132C740.221 516.66 739.951 517.38 739.951 518.292C739.951 518.724 740.017 519.126 740.149 519.498C740.293 519.87 740.497 520.194 740.761 520.47C741.037 520.734 741.379 520.944 741.787 521.1C742.207 521.244 742.687 521.316 743.227 521.316ZM748.249 531.828C748.249 531.468 748.141 531.174 747.925 530.946C747.709 530.718 747.415 530.544 747.043 530.424C746.671 530.292 746.233 530.196 745.729 530.136C745.237 530.076 744.709 530.034 744.145 530.01C743.593 529.974 743.017 529.944 742.417 529.92C741.829 529.896 741.253 529.848 740.689 529.776C740.197 530.052 739.795 530.376 739.483 530.748C739.183 531.12 739.033 531.552 739.033 532.044C739.033 532.368 739.111 532.668 739.267 532.944C739.435 533.232 739.693 533.478 740.041 533.682C740.401 533.886 740.863 534.042 741.427 534.15C741.991 534.27 742.681 534.33 743.497 534.33C744.325 534.33 745.039 534.264 745.639 534.132C746.239 534.012 746.731 533.838 747.115 533.61C747.511 533.394 747.799 533.13 747.979 532.818C748.159 532.518 748.249 532.188 748.249 531.828ZM752.677 513.162V514.818C752.677 515.346 752.359 515.67 751.723 515.79L750.067 516.096C750.319 516.732 750.445 517.428 750.445 518.184C750.445 519.096 750.259 519.924 749.887 520.668C749.527 521.4 749.023 522.024 748.375 522.54C747.727 523.056 746.959 523.458 746.071 523.746C745.195 524.022 744.247 524.16 743.227 524.16C742.867 524.16 742.519 524.142 742.183 524.106C741.847 524.07 741.517 524.022 741.193 523.962C740.617 524.31 740.329 524.7 740.329 525.132C740.329 525.504 740.497 525.78 740.833 525.96C741.181 526.128 741.637 526.248 742.201 526.32C742.765 526.392 743.407 526.44 744.127 526.464C744.847 526.476 745.585 526.512 746.341 526.572C747.097 526.632 747.835 526.74 748.555 526.896C749.275 527.04 749.917 527.274 750.481 527.598C751.045 527.922 751.495 528.366 751.831 528.93C752.179 529.482 752.353 530.196 752.353 531.072C752.353 531.888 752.149 532.68 751.741 533.448C751.345 534.216 750.763 534.9 749.995 535.5C749.239 536.1 748.303 536.58 747.187 536.94C746.083 537.312 744.823 537.498 743.407 537.498C742.015 537.498 740.803 537.36 739.771 537.084C738.739 536.82 737.881 536.46 737.197 536.004C736.513 535.56 736.003 535.044 735.667 534.456C735.331 533.868 735.163 533.256 735.163 532.62C735.163 531.756 735.421 531.036 735.937 530.46C736.465 529.872 737.185 529.404 738.097 529.056C737.605 528.804 737.215 528.468 736.927 528.048C736.639 527.628 736.495 527.076 736.495 526.392C736.495 526.116 736.543 525.834 736.639 525.546C736.747 525.246 736.897 524.952 737.089 524.664C737.293 524.376 737.545 524.106 737.845 523.854C738.145 523.59 738.499 523.356 738.907 523.152C737.971 522.648 737.233 521.976 736.693 521.136C736.165 520.296 735.901 519.312 735.901 518.184C735.901 517.272 736.081 516.45 736.441 515.718C736.813 514.974 737.323 514.344 737.971 513.828C738.631 513.3 739.405 512.898 740.293 512.622C741.193 512.346 742.171 512.208 743.227 512.208C744.019 512.208 744.763 512.292 745.459 512.46C746.155 512.616 746.791 512.85 747.367 513.162H752.677ZM760.105 512.532V531H755.641V512.532H760.105ZM760.717 507.15C760.717 507.534 760.639 507.894 760.483 508.23C760.327 508.566 760.117 508.86 759.853 509.112C759.601 509.364 759.301 509.568 758.953 509.724C758.605 509.868 758.233 509.94 757.837 509.94C757.453 509.94 757.087 509.868 756.739 509.724C756.403 509.568 756.109 509.364 755.857 509.112C755.605 508.86 755.401 508.566 755.245 508.23C755.101 507.894 755.029 507.534 755.029 507.15C755.029 506.754 755.101 506.382 755.245 506.034C755.401 505.686 755.605 505.386 755.857 505.134C756.109 504.882 756.403 504.684 756.739 504.54C757.087 504.384 757.453 504.306 757.837 504.306C758.233 504.306 758.605 504.384 758.953 504.54C759.301 504.684 759.601 504.882 759.853 505.134C760.117 505.386 760.327 505.686 760.483 506.034C760.639 506.382 760.717 506.754 760.717 507.15ZM768.795 514.8C769.167 514.428 769.557 514.086 769.965 513.774C770.385 513.45 770.823 513.18 771.279 512.964C771.747 512.736 772.245 512.562 772.773 512.442C773.301 512.31 773.877 512.244 774.501 512.244C775.509 512.244 776.403 512.418 777.183 512.766C777.963 513.102 778.611 513.582 779.127 514.206C779.655 514.818 780.051 515.556 780.315 516.42C780.591 517.272 780.729 518.214 780.729 519.246V531H776.283V519.246C776.283 518.118 776.025 517.248 775.509 516.636C774.993 516.012 774.207 515.7 773.151 515.7C772.383 515.7 771.663 515.874 770.991 516.222C770.319 516.57 769.683 517.044 769.083 517.644V531H764.637V512.532H767.355C767.931 512.532 768.309 512.802 768.489 513.342L768.795 514.8ZM791.708 521.316C792.26 521.316 792.74 521.244 793.148 521.1C793.556 520.944 793.892 520.734 794.156 520.47C794.432 520.206 794.636 519.888 794.768 519.516C794.912 519.144 794.984 518.736 794.984 518.292C794.984 517.38 794.708 516.66 794.156 516.132C793.616 515.592 792.8 515.322 791.708 515.322C790.616 515.322 789.794 515.592 789.242 516.132C788.702 516.66 788.432 517.38 788.432 518.292C788.432 518.724 788.498 519.126 788.63 519.498C788.774 519.87 788.978 520.194 789.242 520.47C789.518 520.734 789.86 520.944 790.268 521.1C790.688 521.244 791.168 521.316 791.708 521.316ZM796.73 531.828C796.73 531.468 796.622 531.174 796.406 530.946C796.19 530.718 795.896 530.544 795.524 530.424C795.152 530.292 794.714 530.196 794.21 530.136C793.718 530.076 793.19 530.034 792.626 530.01C792.074 529.974 791.498 529.944 790.898 529.92C790.31 529.896 789.734 529.848 789.17 529.776C788.678 530.052 788.276 530.376 787.964 530.748C787.664 531.12 787.514 531.552 787.514 532.044C787.514 532.368 787.592 532.668 787.748 532.944C787.916 533.232 788.174 533.478 788.522 533.682C788.882 533.886 789.344 534.042 789.908 534.15C790.472 534.27 791.162 534.33 791.978 534.33C792.806 534.33 793.52 534.264 794.12 534.132C794.72 534.012 795.212 533.838 795.596 533.61C795.992 533.394 796.28 533.13 796.46 532.818C796.64 532.518 796.73 532.188 796.73 531.828ZM801.158 513.162V514.818C801.158 515.346 800.84 515.67 800.204 515.79L798.548 516.096C798.8 516.732 798.926 517.428 798.926 518.184C798.926 519.096 798.74 519.924 798.368 520.668C798.008 521.4 797.504 522.024 796.856 522.54C796.208 523.056 795.44 523.458 794.552 523.746C793.676 524.022 792.728 524.16 791.708 524.16C791.348 524.16 791 524.142 790.664 524.106C790.328 524.07 789.998 524.022 789.674 523.962C789.098 524.31 788.81 524.7 788.81 525.132C788.81 525.504 788.978 525.78 789.314 525.96C789.662 526.128 790.118 526.248 790.682 526.32C791.246 526.392 791.888 526.44 792.608 526.464C793.328 526.476 794.066 526.512 794.822 526.572C795.578 526.632 796.316 526.74 797.036 526.896C797.756 527.04 798.398 527.274 798.962 527.598C799.526 527.922 799.976 528.366 800.312 528.93C800.66 529.482 800.834 530.196 800.834 531.072C800.834 531.888 800.63 532.68 800.222 533.448C799.826 534.216 799.244 534.9 798.476 535.5C797.72 536.1 796.784 536.58 795.668 536.94C794.564 537.312 793.304 537.498 791.888 537.498C790.496 537.498 789.284 537.36 788.252 537.084C787.22 536.82 786.362 536.46 785.678 536.004C784.994 535.56 784.484 535.044 784.148 534.456C783.812 533.868 783.644 533.256 783.644 532.62C783.644 531.756 783.902 531.036 784.418 530.46C784.946 529.872 785.666 529.404 786.578 529.056C786.086 528.804 785.696 528.468 785.408 528.048C785.12 527.628 784.976 527.076 784.976 526.392C784.976 526.116 785.024 525.834 785.12 525.546C785.228 525.246 785.378 524.952 785.57 524.664C785.774 524.376 786.026 524.106 786.326 523.854C786.626 523.59 786.98 523.356 787.388 523.152C786.452 522.648 785.714 521.976 785.174 521.136C784.646 520.296 784.382 519.312 784.382 518.184C784.382 517.272 784.562 516.45 784.922 515.718C785.294 514.974 785.804 514.344 786.452 513.828C787.112 513.3 787.886 512.898 788.774 512.622C789.674 512.346 790.652 512.208 791.708 512.208C792.5 512.208 793.244 512.292 793.94 512.46C794.636 512.616 795.272 512.85 795.848 513.162H801.158ZM834.399 504.972L823.887 531H819.513L809.001 504.972H812.889C813.309 504.972 813.651 505.074 813.915 505.278C814.179 505.482 814.377 505.746 814.509 506.07L820.647 521.946C820.851 522.462 821.043 523.032 821.223 523.656C821.415 524.268 821.595 524.91 821.763 525.582C821.907 524.91 822.063 524.268 822.231 523.656C822.399 523.032 822.585 522.462 822.789 521.946L828.891 506.07C828.987 505.794 829.173 505.542 829.449 505.314C829.737 505.086 830.085 504.972 830.493 504.972H834.399ZM845.553 518.058C846.441 518.058 847.215 517.95 847.875 517.734C848.535 517.506 849.081 517.188 849.513 516.78C849.957 516.36 850.287 515.856 850.503 515.268C850.719 514.668 850.827 514.002 850.827 513.27C850.827 512.574 850.719 511.944 850.503 511.38C850.287 510.816 849.963 510.336 849.531 509.94C849.099 509.544 848.553 509.244 847.893 509.04C847.233 508.824 846.453 508.716 845.553 508.716H841.935V518.058H845.553ZM845.553 504.972C847.293 504.972 848.799 505.176 850.071 505.584C851.343 505.992 852.393 506.562 853.221 507.294C854.049 508.026 854.661 508.902 855.057 509.922C855.465 510.942 855.669 512.058 855.669 513.27C855.669 514.53 855.459 515.688 855.039 516.744C854.619 517.788 853.989 518.688 853.149 519.444C852.309 520.2 851.253 520.788 849.981 521.208C848.721 521.628 847.245 521.838 845.553 521.838H841.935V531H837.093V504.972H845.553ZM881.324 504.972V531H878.84C878.456 531 878.132 530.94 877.868 530.82C877.616 530.688 877.37 530.472 877.13 530.172L863.54 512.82C863.612 513.612 863.648 514.344 863.648 515.016V531H859.382V504.972H861.92C862.124 504.972 862.298 504.984 862.442 505.008C862.598 505.02 862.73 505.056 862.838 505.116C862.958 505.164 863.072 505.242 863.18 505.35C863.288 505.446 863.408 505.578 863.54 505.746L877.184 523.17C877.148 522.75 877.118 522.336 877.094 521.928C877.07 521.52 877.058 521.142 877.058 520.794V504.972H881.324ZM906.441 516.132C906.321 516.324 906.195 516.462 906.063 516.546C905.931 516.618 905.763 516.654 905.559 516.654C905.343 516.654 905.109 516.594 904.857 516.474C904.617 516.354 904.335 516.222 904.011 516.078C903.687 515.922 903.315 515.784 902.895 515.664C902.487 515.544 902.001 515.484 901.437 515.484C900.561 515.484 899.871 515.67 899.367 516.042C898.875 516.414 898.629 516.9 898.629 517.5C898.629 517.896 898.755 518.232 899.007 518.508C899.271 518.772 899.613 519.006 900.033 519.21C900.465 519.414 900.951 519.6 901.491 519.768C902.031 519.924 902.577 520.098 903.129 520.29C903.693 520.482 904.245 520.704 904.785 520.956C905.325 521.196 905.805 521.508 906.225 521.892C906.657 522.264 906.999 522.714 907.251 523.242C907.515 523.77 907.647 524.406 907.647 525.15C907.647 526.038 907.485 526.86 907.161 527.616C906.849 528.36 906.381 529.008 905.757 529.56C905.133 530.1 904.359 530.526 903.435 530.838C902.523 531.138 901.467 531.288 900.267 531.288C899.631 531.288 899.007 531.228 898.395 531.108C897.795 531 897.213 530.844 896.649 530.64C896.097 530.436 895.581 530.196 895.101 529.92C894.633 529.644 894.219 529.344 893.859 529.02L894.885 527.328C895.017 527.124 895.173 526.968 895.353 526.86C895.533 526.752 895.761 526.698 896.037 526.698C896.313 526.698 896.571 526.776 896.811 526.932C897.063 527.088 897.351 527.256 897.675 527.436C897.999 527.616 898.377 527.784 898.809 527.94C899.253 528.096 899.811 528.174 900.483 528.174C901.011 528.174 901.461 528.114 901.833 527.994C902.217 527.862 902.529 527.694 902.769 527.49C903.021 527.286 903.201 527.052 903.309 526.788C903.429 526.512 903.489 526.23 903.489 525.942C903.489 525.51 903.357 525.156 903.093 524.88C902.841 524.604 902.499 524.364 902.067 524.16C901.647 523.956 901.161 523.776 900.609 523.62C900.069 523.452 899.511 523.272 898.935 523.08C898.371 522.888 897.813 522.666 897.261 522.414C896.721 522.15 896.235 521.82 895.803 521.424C895.383 521.028 895.041 520.542 894.777 519.966C894.525 519.39 894.399 518.694 894.399 517.878C894.399 517.122 894.549 516.402 894.849 515.718C895.149 515.034 895.587 514.44 896.163 513.936C896.751 513.42 897.477 513.012 898.341 512.712C899.217 512.4 900.225 512.244 901.365 512.244C902.637 512.244 903.795 512.454 904.839 512.874C905.883 513.294 906.753 513.846 907.449 514.53L906.441 516.132ZM922.891 519.642C922.891 519.066 922.807 518.526 922.639 518.022C922.483 517.506 922.243 517.056 921.919 516.672C921.595 516.288 921.181 515.988 920.677 515.772C920.185 515.544 919.609 515.43 918.949 515.43C917.665 515.43 916.651 515.796 915.907 516.528C915.175 517.26 914.707 518.298 914.503 519.642H922.891ZM914.413 522.324C914.485 523.272 914.653 524.094 914.917 524.79C915.181 525.474 915.529 526.044 915.961 526.5C916.393 526.944 916.903 527.28 917.491 527.508C918.091 527.724 918.751 527.832 919.471 527.832C920.191 527.832 920.809 527.748 921.325 527.58C921.853 527.412 922.309 527.226 922.693 527.022C923.089 526.818 923.431 526.632 923.719 526.464C924.019 526.296 924.307 526.212 924.583 526.212C924.955 526.212 925.231 526.35 925.411 526.626L926.689 528.246C926.197 528.822 925.645 529.308 925.033 529.704C924.421 530.088 923.779 530.4 923.107 530.64C922.447 530.868 921.769 531.03 921.073 531.126C920.389 531.222 919.723 531.27 919.075 531.27C917.791 531.27 916.597 531.06 915.493 530.64C914.389 530.208 913.429 529.578 912.613 528.75C911.797 527.91 911.155 526.878 910.687 525.654C910.219 524.418 909.985 522.99 909.985 521.37C909.985 520.11 910.189 518.928 910.597 517.824C911.005 516.708 911.587 515.742 912.343 514.926C913.111 514.098 914.041 513.444 915.133 512.964C916.237 512.484 917.479 512.244 918.859 512.244C920.023 512.244 921.097 512.43 922.081 512.802C923.065 513.174 923.911 513.72 924.619 514.44C925.327 515.148 925.879 516.024 926.275 517.068C926.683 518.1 926.887 519.282 926.887 520.614C926.887 521.286 926.815 521.742 926.671 521.982C926.527 522.21 926.251 522.324 925.843 522.324H914.413ZM934.417 515.736C934.993 514.632 935.677 513.768 936.469 513.144C937.261 512.508 938.197 512.19 939.277 512.19C940.129 512.19 940.813 512.376 941.329 512.748L941.041 516.078C940.981 516.294 940.891 516.45 940.771 516.546C940.663 516.63 940.513 516.672 940.321 516.672C940.141 516.672 939.871 516.642 939.511 516.582C939.163 516.522 938.821 516.492 938.485 516.492C937.993 516.492 937.555 516.564 937.171 516.708C936.787 516.852 936.439 517.062 936.127 517.338C935.827 517.602 935.557 517.926 935.317 518.31C935.089 518.694 934.873 519.132 934.669 519.624V531H930.223V512.532H932.833C933.289 512.532 933.607 512.616 933.787 512.784C933.967 512.94 934.087 513.228 934.147 513.648L934.417 515.736ZM960.303 512.532L952.977 531H948.945L941.619 512.532H945.291C945.627 512.532 945.903 512.61 946.119 512.766C946.347 512.922 946.497 513.12 946.569 513.36L950.133 523.224C950.325 523.8 950.493 524.364 950.637 524.916C950.781 525.468 950.907 526.02 951.015 526.572C951.135 526.02 951.267 525.468 951.411 524.916C951.555 524.364 951.729 523.8 951.933 523.224L955.569 513.36C955.653 513.12 955.803 512.922 956.019 512.766C956.235 512.61 956.493 512.532 956.793 512.532H960.303ZM974.008 519.642C974.008 519.066 973.924 518.526 973.756 518.022C973.6 517.506 973.36 517.056 973.036 516.672C972.712 516.288 972.298 515.988 971.794 515.772C971.302 515.544 970.726 515.43 970.066 515.43C968.782 515.43 967.768 515.796 967.024 516.528C966.292 517.26 965.824 518.298 965.62 519.642H974.008ZM965.53 522.324C965.602 523.272 965.77 524.094 966.034 524.79C966.298 525.474 966.646 526.044 967.078 526.5C967.51 526.944 968.02 527.28 968.608 527.508C969.208 527.724 969.868 527.832 970.588 527.832C971.308 527.832 971.926 527.748 972.442 527.58C972.97 527.412 973.426 527.226 973.81 527.022C974.206 526.818 974.548 526.632 974.836 526.464C975.136 526.296 975.424 526.212 975.7 526.212C976.072 526.212 976.348 526.35 976.528 526.626L977.806 528.246C977.314 528.822 976.762 529.308 976.15 529.704C975.538 530.088 974.896 530.4 974.224 530.64C973.564 530.868 972.886 531.03 972.19 531.126C971.506 531.222 970.84 531.27 970.192 531.27C968.908 531.27 967.714 531.06 966.61 530.64C965.506 530.208 964.546 529.578 963.73 528.75C962.914 527.91 962.272 526.878 961.804 525.654C961.336 524.418 961.102 522.99 961.102 521.37C961.102 520.11 961.306 518.928 961.714 517.824C962.122 516.708 962.704 515.742 963.46 514.926C964.228 514.098 965.158 513.444 966.25 512.964C967.354 512.484 968.596 512.244 969.976 512.244C971.14 512.244 972.214 512.43 973.198 512.802C974.182 513.174 975.028 513.72 975.736 514.44C976.444 515.148 976.996 516.024 977.392 517.068C977.8 518.1 978.004 519.282 978.004 520.614C978.004 521.286 977.932 521.742 977.788 521.982C977.644 522.21 977.368 522.324 976.96 522.324H965.53ZM985.535 515.736C986.111 514.632 986.795 513.768 987.587 513.144C988.379 512.508 989.315 512.19 990.395 512.19C991.247 512.19 991.931 512.376 992.447 512.748L992.159 516.078C992.099 516.294 992.009 516.45 991.889 516.546C991.781 516.63 991.631 516.672 991.439 516.672C991.259 516.672 990.989 516.642 990.629 516.582C990.281 516.522 989.939 516.492 989.603 516.492C989.111 516.492 988.673 516.564 988.289 516.708C987.905 516.852 987.557 517.062 987.245 517.338C986.945 517.602 986.675 517.926 986.435 518.31C986.207 518.694 985.991 519.132 985.787 519.624V531H981.341V512.532H983.951C984.407 512.532 984.725 512.616 984.905 512.784C985.085 512.94 985.205 513.228 985.265 513.648L985.535 515.736Z" fill="#3F3F3F"/>
<path d="M407.454 573.256C407.454 575.224 407.16 577.012 406.572 578.62C405.984 580.216 405.156 581.584 404.088 582.724C403.02 583.852 401.736 584.728 400.236 585.352C398.748 585.964 397.104 586.27 395.304 586.27C393.504 586.27 391.86 585.964 390.372 585.352C388.884 584.728 387.606 583.852 386.538 582.724C385.47 581.584 384.642 580.216 384.054 578.62C383.466 577.012 383.172 575.224 383.172 573.256C383.172 571.3 383.466 569.524 384.054 567.928C384.642 566.32 385.47 564.952 386.538 563.824C387.606 562.684 388.884 561.802 390.372 561.178C391.86 560.554 393.504 560.242 395.304 560.242C397.104 560.242 398.748 560.554 400.236 561.178C401.736 561.79 403.02 562.666 404.088 563.806C405.156 564.946 405.984 566.32 406.572 567.928C407.16 569.524 407.454 571.3 407.454 573.256ZM405.546 573.256C405.546 571.48 405.3 569.884 404.808 568.468C404.316 567.052 403.62 565.852 402.72 564.868C401.82 563.884 400.74 563.134 399.48 562.618C398.22 562.09 396.828 561.826 395.304 561.826C393.792 561.826 392.406 562.09 391.146 562.618C389.886 563.134 388.8 563.884 387.888 564.868C386.988 565.852 386.286 567.052 385.782 568.468C385.29 569.884 385.044 571.48 385.044 573.256C385.044 575.044 385.29 576.646 385.782 578.062C386.286 579.466 386.988 580.66 387.888 581.644C388.8 582.628 389.886 583.378 391.146 583.894C392.406 584.41 393.792 584.668 395.304 584.668C396.828 584.668 398.22 584.41 399.48 583.894C400.74 583.378 401.82 582.628 402.72 581.644C403.62 580.66 404.316 579.466 404.808 578.062C405.3 576.646 405.546 575.044 405.546 573.256ZM413.801 582.094C414.149 582.61 414.509 583.048 414.881 583.408C415.265 583.756 415.667 584.044 416.087 584.272C416.507 584.488 416.951 584.644 417.419 584.74C417.899 584.836 418.403 584.884 418.931 584.884C419.987 584.884 420.911 584.692 421.703 584.308C422.495 583.924 423.155 583.384 423.683 582.688C424.223 581.98 424.625 581.14 424.889 580.168C425.165 579.184 425.303 578.104 425.303 576.928C425.303 574.264 424.811 572.308 423.827 571.06C422.843 569.8 421.433 569.17 419.597 569.17C418.409 569.17 417.335 569.476 416.375 570.088C415.415 570.7 414.557 571.552 413.801 572.644V582.094ZM413.729 571.312C414.521 570.232 415.445 569.374 416.501 568.738C417.569 568.102 418.763 567.784 420.083 567.784C422.279 567.784 423.989 568.546 425.213 570.07C426.449 571.594 427.067 573.88 427.067 576.928C427.067 578.236 426.893 579.46 426.545 580.6C426.209 581.728 425.705 582.712 425.033 583.552C424.373 584.38 423.557 585.034 422.585 585.514C421.625 585.994 420.515 586.234 419.255 586.234C418.043 586.234 416.993 586.012 416.105 585.568C415.217 585.124 414.449 584.47 413.801 583.606V592.336H412.073V568.09H413.027C413.327 568.09 413.501 568.24 413.549 568.54L413.729 571.312ZM444.5 575.236C444.5 574.276 444.362 573.418 444.086 572.662C443.822 571.894 443.444 571.246 442.952 570.718C442.46 570.19 441.872 569.788 441.188 569.512C440.516 569.224 439.772 569.08 438.956 569.08C438.032 569.08 437.204 569.224 436.472 569.512C435.74 569.8 435.104 570.214 434.564 570.754C434.036 571.294 433.61 571.942 433.286 572.698C432.962 573.454 432.746 574.3 432.638 575.236H444.5ZM432.548 576.334V576.676C432.548 578.02 432.704 579.202 433.016 580.222C433.328 581.242 433.772 582.1 434.348 582.796C434.924 583.48 435.62 583.996 436.436 584.344C437.252 584.692 438.164 584.866 439.172 584.866C440.072 584.866 440.852 584.77 441.512 584.578C442.172 584.374 442.724 584.152 443.168 583.912C443.624 583.66 443.984 583.438 444.248 583.246C444.512 583.042 444.704 582.94 444.824 582.94C444.98 582.94 445.1 583 445.184 583.12L445.652 583.696C445.364 584.056 444.98 584.392 444.5 584.704C444.032 585.016 443.504 585.286 442.916 585.514C442.34 585.73 441.716 585.904 441.044 586.036C440.384 586.168 439.718 586.234 439.046 586.234C437.822 586.234 436.706 586.024 435.698 585.604C434.69 585.172 433.826 584.548 433.106 583.732C432.386 582.916 431.828 581.92 431.432 580.744C431.048 579.556 430.856 578.2 430.856 576.676C430.856 575.392 431.036 574.21 431.396 573.13C431.768 572.038 432.296 571.102 432.98 570.322C433.676 569.53 434.522 568.912 435.518 568.468C436.526 568.024 437.666 567.802 438.938 567.802C439.946 567.802 440.882 567.976 441.746 568.324C442.61 568.672 443.36 569.182 443.996 569.854C444.632 570.514 445.13 571.33 445.49 572.302C445.862 573.274 446.048 574.39 446.048 575.65C446.048 575.914 446.012 576.094 445.94 576.19C445.868 576.286 445.748 576.334 445.58 576.334H432.548ZM452.348 571.222C453.176 570.19 454.13 569.362 455.21 568.738C456.302 568.114 457.514 567.802 458.846 567.802C459.83 567.802 460.694 567.958 461.438 568.27C462.194 568.582 462.818 569.032 463.31 569.62C463.802 570.208 464.174 570.916 464.426 571.744C464.678 572.572 464.804 573.508 464.804 574.552V586H463.076V574.552C463.076 572.872 462.692 571.558 461.924 570.61C461.156 569.65 459.986 569.17 458.414 569.17C457.25 569.17 456.158 569.47 455.138 570.07C454.13 570.658 453.23 571.48 452.438 572.536V586H450.71V568.09H451.664C451.964 568.09 452.138 568.24 452.186 568.54L452.348 571.222ZM470.035 574.588H478.405V576.046H470.035V574.588ZM493.673 570.304C493.577 570.472 493.439 570.556 493.259 570.556C493.127 570.556 492.959 570.484 492.755 570.34C492.551 570.184 492.275 570.016 491.927 569.836C491.591 569.644 491.171 569.476 490.667 569.332C490.163 569.176 489.551 569.098 488.831 569.098C488.183 569.098 487.589 569.194 487.049 569.386C486.521 569.566 486.065 569.812 485.681 570.124C485.309 570.436 485.021 570.802 484.817 571.222C484.613 571.63 484.511 572.062 484.511 572.518C484.511 573.082 484.655 573.55 484.943 573.922C485.231 574.294 485.603 574.612 486.059 574.876C486.527 575.14 487.061 575.368 487.661 575.56C488.261 575.752 488.867 575.944 489.479 576.136C490.103 576.328 490.715 576.544 491.315 576.784C491.915 577.012 492.443 577.3 492.899 577.648C493.367 577.996 493.745 578.422 494.033 578.926C494.321 579.43 494.465 580.042 494.465 580.762C494.465 581.542 494.327 582.268 494.051 582.94C493.775 583.612 493.367 584.194 492.827 584.686C492.299 585.178 491.645 585.568 490.865 585.856C490.085 586.144 489.191 586.288 488.183 586.288C486.923 586.288 485.837 586.09 484.925 585.694C484.013 585.286 483.197 584.758 482.477 584.11L482.873 583.498C482.933 583.402 482.999 583.33 483.071 583.282C483.155 583.234 483.263 583.21 483.395 583.21C483.551 583.21 483.737 583.306 483.953 583.498C484.181 583.69 484.481 583.9 484.853 584.128C485.225 584.344 485.681 584.548 486.221 584.74C486.773 584.932 487.451 585.028 488.255 585.028C489.011 585.028 489.677 584.926 490.253 584.722C490.829 584.506 491.309 584.218 491.693 583.858C492.077 583.498 492.365 583.078 492.557 582.598C492.761 582.106 492.863 581.59 492.863 581.05C492.863 580.45 492.719 579.952 492.431 579.556C492.143 579.16 491.765 578.824 491.297 578.548C490.829 578.272 490.295 578.038 489.695 577.846C489.107 577.654 488.501 577.462 487.877 577.27C487.253 577.078 486.641 576.868 486.041 576.64C485.453 576.412 484.925 576.124 484.457 575.776C483.989 575.428 483.611 575.008 483.323 574.516C483.035 574.012 482.891 573.388 482.891 572.644C482.891 572.008 483.029 571.396 483.305 570.808C483.581 570.22 483.971 569.704 484.475 569.26C484.991 568.816 485.615 568.462 486.347 568.198C487.079 567.934 487.901 567.802 488.813 567.802C489.905 567.802 490.871 567.958 491.711 568.27C492.563 568.582 493.337 569.062 494.033 569.71L493.673 570.304ZM506.212 567.802C507.496 567.802 508.642 568.024 509.65 568.468C510.67 568.9 511.528 569.518 512.224 570.322C512.92 571.126 513.448 572.098 513.808 573.238C514.18 574.366 514.366 575.632 514.366 577.036C514.366 578.44 514.18 579.706 513.808 580.834C513.448 581.962 512.92 582.928 512.224 583.732C511.528 584.536 510.67 585.154 509.65 585.586C508.642 586.018 507.496 586.234 506.212 586.234C504.928 586.234 503.776 586.018 502.756 585.586C501.748 585.154 500.89 584.536 500.182 583.732C499.486 582.928 498.952 581.962 498.58 580.834C498.22 579.706 498.04 578.44 498.04 577.036C498.04 575.632 498.22 574.366 498.58 573.238C498.952 572.098 499.486 571.126 500.182 570.322C500.89 569.518 501.748 568.9 502.756 568.468C503.776 568.024 504.928 567.802 506.212 567.802ZM506.212 584.884C507.28 584.884 508.21 584.704 509.002 584.344C509.806 583.972 510.472 583.444 511 582.76C511.54 582.076 511.942 581.254 512.206 580.294C512.47 579.322 512.602 578.236 512.602 577.036C512.602 575.848 512.47 574.768 512.206 573.796C511.942 572.824 511.54 571.996 511 571.312C510.472 570.616 509.806 570.082 509.002 569.71C508.21 569.338 507.28 569.152 506.212 569.152C505.144 569.152 504.208 569.338 503.404 569.71C502.612 570.082 501.946 570.616 501.406 571.312C500.878 571.996 500.476 572.824 500.2 573.796C499.936 574.768 499.804 575.848 499.804 577.036C499.804 578.236 499.936 579.322 500.2 580.294C500.476 581.254 500.878 582.076 501.406 582.76C501.946 583.444 502.612 583.972 503.404 584.344C504.208 584.704 505.144 584.884 506.212 584.884ZM533.09 568.09V586H532.136C531.836 586 531.662 585.844 531.614 585.532L531.452 582.868C530.624 583.9 529.664 584.728 528.572 585.352C527.492 585.976 526.286 586.288 524.954 586.288C523.958 586.288 523.088 586.132 522.344 585.82C521.6 585.508 520.982 585.058 520.49 584.47C519.998 583.882 519.626 583.174 519.374 582.346C519.122 581.518 518.996 580.582 518.996 579.538V568.09H520.724V579.538C520.724 581.218 521.108 582.538 521.876 583.498C522.644 584.446 523.814 584.92 525.386 584.92C526.55 584.92 527.636 584.626 528.644 584.038C529.664 583.438 530.57 582.61 531.362 581.554V568.09H533.09ZM540.625 572.41C540.901 571.678 541.213 571.03 541.561 570.466C541.921 569.89 542.329 569.404 542.785 569.008C543.253 568.612 543.769 568.312 544.333 568.108C544.909 567.892 545.545 567.784 546.241 567.784C546.613 567.784 546.979 567.82 547.339 567.892C547.699 567.952 548.017 568.066 548.293 568.234L548.149 569.422C548.089 569.614 547.975 569.71 547.807 569.71C547.663 569.71 547.441 569.668 547.141 569.584C546.853 569.5 546.469 569.458 545.989 569.458C545.293 569.458 544.675 569.566 544.135 569.782C543.607 569.986 543.127 570.298 542.695 570.718C542.275 571.138 541.903 571.66 541.579 572.284C541.267 572.896 540.979 573.604 540.715 574.408V586H538.987V568.09H539.905C540.109 568.09 540.253 568.132 540.337 568.216C540.421 568.3 540.475 568.444 540.499 568.648L540.625 572.41ZM562.736 570.484C562.676 570.544 562.616 570.598 562.556 570.646C562.508 570.682 562.436 570.7 562.34 570.7C562.22 570.7 562.058 570.622 561.854 570.466C561.65 570.298 561.374 570.118 561.026 569.926C560.678 569.734 560.24 569.56 559.712 569.404C559.196 569.236 558.566 569.152 557.822 569.152C556.79 569.152 555.872 569.338 555.068 569.71C554.276 570.07 553.604 570.592 553.052 571.276C552.5 571.96 552.08 572.788 551.792 573.76C551.516 574.732 551.378 575.824 551.378 577.036C551.378 578.296 551.522 579.412 551.81 580.384C552.11 581.356 552.53 582.178 553.07 582.85C553.61 583.51 554.264 584.014 555.032 584.362C555.8 584.71 556.652 584.884 557.588 584.884C558.452 584.884 559.172 584.782 559.748 584.578C560.336 584.374 560.816 584.152 561.188 583.912C561.572 583.672 561.872 583.45 562.088 583.246C562.304 583.042 562.484 582.94 562.628 582.94C562.772 582.94 562.892 583 562.988 583.12L563.438 583.696C563.162 584.056 562.814 584.392 562.394 584.704C561.974 585.016 561.5 585.286 560.972 585.514C560.444 585.742 559.868 585.916 559.244 586.036C558.632 586.168 557.99 586.234 557.318 586.234C556.178 586.234 555.134 586.03 554.186 585.622C553.25 585.202 552.44 584.602 551.756 583.822C551.084 583.03 550.556 582.064 550.172 580.924C549.8 579.784 549.614 578.488 549.614 577.036C549.614 575.668 549.794 574.42 550.154 573.292C550.514 572.164 551.042 571.192 551.738 570.376C552.434 569.56 553.28 568.93 554.276 568.486C555.284 568.03 556.436 567.802 557.732 567.802C558.896 567.802 559.928 567.988 560.828 568.36C561.728 568.732 562.514 569.236 563.186 569.872L562.736 570.484ZM579.887 575.236C579.887 574.276 579.749 573.418 579.473 572.662C579.209 571.894 578.831 571.246 578.339 570.718C577.847 570.19 577.259 569.788 576.575 569.512C575.903 569.224 575.159 569.08 574.343 569.08C573.419 569.08 572.591 569.224 571.859 569.512C571.127 569.8 570.491 570.214 569.951 570.754C569.423 571.294 568.997 571.942 568.673 572.698C568.349 573.454 568.133 574.3 568.025 575.236H579.887ZM567.935 576.334V576.676C567.935 578.02 568.091 579.202 568.403 580.222C568.715 581.242 569.159 582.1 569.735 582.796C570.311 583.48 571.007 583.996 571.823 584.344C572.639 584.692 573.551 584.866 574.559 584.866C575.459 584.866 576.239 584.77 576.899 584.578C577.559 584.374 578.111 584.152 578.555 583.912C579.011 583.66 579.371 583.438 579.635 583.246C579.899 583.042 580.091 582.94 580.211 582.94C580.367 582.94 580.487 583 580.571 583.12L581.039 583.696C580.751 584.056 580.367 584.392 579.887 584.704C579.419 585.016 578.891 585.286 578.303 585.514C577.727 585.73 577.103 585.904 576.431 586.036C575.771 586.168 575.105 586.234 574.433 586.234C573.209 586.234 572.093 586.024 571.085 585.604C570.077 585.172 569.213 584.548 568.493 583.732C567.773 582.916 567.215 581.92 566.819 580.744C566.435 579.556 566.243 578.2 566.243 576.676C566.243 575.392 566.423 574.21 566.783 573.13C567.155 572.038 567.683 571.102 568.367 570.322C569.063 569.53 569.909 568.912 570.905 568.468C571.913 568.024 573.053 567.802 574.325 567.802C575.333 567.802 576.269 567.976 577.133 568.324C577.997 568.672 578.747 569.182 579.383 569.854C580.019 570.514 580.517 571.33 580.877 572.302C581.249 573.274 581.435 574.39 581.435 575.65C581.435 575.914 581.399 576.094 581.327 576.19C581.255 576.286 581.135 576.334 580.967 576.334H567.935ZM585.683 584.614C585.683 584.386 585.725 584.17 585.809 583.966C585.893 583.762 586.007 583.588 586.151 583.444C586.307 583.288 586.481 583.168 586.673 583.084C586.877 582.988 587.099 582.94 587.339 582.94C587.567 582.94 587.783 582.988 587.987 583.084C588.191 583.168 588.365 583.288 588.509 583.444C588.665 583.588 588.785 583.762 588.869 583.966C588.965 584.17 589.013 584.386 589.013 584.614C589.013 584.854 588.965 585.076 588.869 585.28C588.785 585.472 588.665 585.646 588.509 585.802C588.365 585.946 588.191 586.06 587.987 586.144C587.783 586.228 587.567 586.27 587.339 586.27C586.871 586.27 586.475 586.114 586.151 585.802C585.839 585.478 585.683 585.082 585.683 584.614ZM611.346 573.112C612.474 573.112 613.482 572.98 614.37 572.716C615.27 572.44 616.026 572.05 616.638 571.546C617.262 571.042 617.736 570.436 618.06 569.728C618.384 569.02 618.546 568.222 618.546 567.334C618.546 565.522 617.952 564.178 616.764 563.302C615.588 562.426 613.866 561.988 611.598 561.988H606.936V573.112H611.346ZM622.65 586H621.066C620.862 586 620.688 585.97 620.544 585.91C620.412 585.838 620.286 585.712 620.166 585.532L611.994 575.2C611.898 575.068 611.796 574.954 611.688 574.858C611.592 574.762 611.478 574.69 611.346 574.642C611.226 574.582 611.076 574.54 610.896 574.516C610.728 574.492 610.518 574.48 610.266 574.48H606.936V586H605.082V560.53H611.598C614.526 560.53 616.716 561.1 618.168 562.24C619.632 563.368 620.364 565.03 620.364 567.226C620.364 568.198 620.196 569.086 619.86 569.89C619.524 570.694 619.038 571.402 618.402 572.014C617.778 572.614 617.016 573.106 616.116 573.49C615.228 573.874 614.226 574.132 613.11 574.264C613.398 574.444 613.656 574.684 613.884 574.984L622.65 586ZM637.579 575.236C637.579 574.276 637.441 573.418 637.165 572.662C636.901 571.894 636.523 571.246 636.031 570.718C635.539 570.19 634.951 569.788 634.267 569.512C633.595 569.224 632.851 569.08 632.035 569.08C631.111 569.08 630.283 569.224 629.551 569.512C628.819 569.8 628.183 570.214 627.643 570.754C627.115 571.294 626.689 571.942 626.365 572.698C626.041 573.454 625.825 574.3 625.717 575.236H637.579ZM625.627 576.334V576.676C625.627 578.02 625.783 579.202 626.095 580.222C626.407 581.242 626.851 582.1 627.427 582.796C628.003 583.48 628.699 583.996 629.515 584.344C630.331 584.692 631.243 584.866 632.251 584.866C633.151 584.866 633.931 584.77 634.591 584.578C635.251 584.374 635.803 584.152 636.247 583.912C636.703 583.66 637.063 583.438 637.327 583.246C637.591 583.042 637.783 582.94 637.903 582.94C638.059 582.94 638.179 583 638.263 583.12L638.731 583.696C638.443 584.056 638.059 584.392 637.579 584.704C637.111 585.016 636.583 585.286 635.995 585.514C635.419 585.73 634.795 585.904 634.123 586.036C633.463 586.168 632.797 586.234 632.125 586.234C630.901 586.234 629.785 586.024 628.777 585.604C627.769 585.172 626.905 584.548 626.185 583.732C625.465 582.916 624.907 581.92 624.511 580.744C624.127 579.556 623.935 578.2 623.935 576.676C623.935 575.392 624.115 574.21 624.475 573.13C624.847 572.038 625.375 571.102 626.059 570.322C626.755 569.53 627.601 568.912 628.597 568.468C629.605 568.024 630.745 567.802 632.017 567.802C633.025 567.802 633.961 567.976 634.825 568.324C635.689 568.672 636.439 569.182 637.075 569.854C637.711 570.514 638.209 571.33 638.569 572.302C638.941 573.274 639.127 574.39 639.127 575.65C639.127 575.914 639.091 576.094 639.019 576.19C638.947 576.286 638.827 576.334 638.659 576.334H625.627ZM645.678 559.81V586H643.95V559.81H645.678ZM653.641 568.09V586H651.931V568.09H653.641ZM654.379 561.916C654.379 562.132 654.331 562.336 654.235 562.528C654.151 562.708 654.037 562.87 653.893 563.014C653.749 563.158 653.581 563.272 653.389 563.356C653.197 563.44 652.993 563.482 652.777 563.482C652.561 563.482 652.357 563.44 652.165 563.356C651.973 563.272 651.805 563.158 651.661 563.014C651.517 562.87 651.403 562.708 651.319 562.528C651.235 562.336 651.193 562.132 651.193 561.916C651.193 561.7 651.235 561.496 651.319 561.304C651.403 561.1 651.517 560.926 651.661 560.782C651.805 560.638 651.973 560.524 652.165 560.44C652.357 560.356 652.561 560.314 652.777 560.314C652.993 560.314 653.197 560.356 653.389 560.44C653.581 560.524 653.749 560.638 653.893 560.782C654.037 560.926 654.151 561.1 654.235 561.304C654.331 561.496 654.379 561.7 654.379 561.916ZM669.775 577.342C668.071 577.402 666.601 577.54 665.365 577.756C664.141 577.96 663.127 578.242 662.323 578.602C661.531 578.962 660.943 579.394 660.559 579.898C660.175 580.39 659.983 580.954 659.983 581.59C659.983 582.19 660.079 582.712 660.271 583.156C660.475 583.588 660.739 583.948 661.063 584.236C661.399 584.512 661.783 584.716 662.215 584.848C662.647 584.98 663.097 585.046 663.565 585.046C664.261 585.046 664.897 584.974 665.473 584.83C666.061 584.674 666.601 584.464 667.093 584.2C667.597 583.924 668.065 583.6 668.497 583.228C668.929 582.856 669.355 582.454 669.775 582.022V577.342ZM659.245 570.628C660.181 569.692 661.165 568.984 662.197 568.504C663.229 568.024 664.399 567.784 665.707 567.784C666.667 567.784 667.507 567.94 668.227 568.252C668.947 568.552 669.541 568.99 670.009 569.566C670.489 570.13 670.849 570.82 671.089 571.636C671.329 572.44 671.449 573.34 671.449 574.336V586H670.765C670.405 586 670.183 585.832 670.099 585.496L669.847 583.192C669.355 583.672 668.863 584.104 668.371 584.488C667.891 584.872 667.387 585.196 666.859 585.46C666.331 585.724 665.761 585.928 665.149 586.072C664.537 586.216 663.865 586.288 663.133 586.288C662.521 586.288 661.927 586.198 661.351 586.018C660.775 585.838 660.259 585.562 659.803 585.19C659.359 584.818 658.999 584.344 658.723 583.768C658.459 583.18 658.327 582.478 658.327 581.662C658.327 580.906 658.543 580.204 658.975 579.556C659.407 578.908 660.085 578.344 661.009 577.864C661.933 577.384 663.115 577 664.555 576.712C666.007 576.424 667.747 576.256 669.775 576.208V574.336C669.775 572.68 669.415 571.408 668.695 570.52C667.987 569.62 666.931 569.17 665.527 569.17C664.663 569.17 663.925 569.29 663.313 569.53C662.713 569.77 662.203 570.034 661.783 570.322C661.363 570.61 661.021 570.874 660.757 571.114C660.493 571.354 660.271 571.474 660.091 571.474C659.959 571.474 659.851 571.444 659.767 571.384C659.683 571.324 659.611 571.246 659.551 571.15L659.245 570.628ZM678.914 582.094C679.61 583.126 680.372 583.852 681.2 584.272C682.04 584.68 682.982 584.884 684.026 584.884C685.094 584.884 686.024 584.692 686.816 584.308C687.62 583.924 688.286 583.378 688.814 582.67C689.354 581.95 689.756 581.08 690.02 580.06C690.284 579.04 690.416 577.894 690.416 576.622C690.416 574.15 689.924 572.29 688.94 571.042C687.956 569.794 686.576 569.17 684.8 569.17C683.528 569.17 682.418 569.476 681.47 570.088C680.522 570.7 679.67 571.552 678.914 572.644V582.094ZM678.914 571.204C679.694 570.148 680.606 569.32 681.65 568.72C682.694 568.108 683.906 567.802 685.286 567.802C686.366 567.802 687.332 568 688.184 568.396C689.036 568.792 689.756 569.362 690.344 570.106C690.944 570.85 691.4 571.768 691.712 572.86C692.024 573.94 692.18 575.17 692.18 576.55C692.18 578.002 692.006 579.328 691.658 580.528C691.31 581.716 690.8 582.736 690.128 583.588C689.468 584.428 688.658 585.082 687.698 585.55C686.738 586.006 685.64 586.234 684.404 586.234C683.132 586.234 682.046 585.994 681.146 585.514C680.258 585.022 679.49 584.296 678.842 583.336L678.716 585.55C678.68 585.85 678.518 586 678.23 586H677.186V559.81H678.914V571.204ZM698.905 559.81V586H697.177V559.81H698.905ZM717.524 575.236C717.524 574.276 717.386 573.418 717.11 572.662C716.846 571.894 716.468 571.246 715.976 570.718C715.484 570.19 714.896 569.788 714.212 569.512C713.54 569.224 712.796 569.08 711.98 569.08C711.056 569.08 710.228 569.224 709.496 569.512C708.764 569.8 708.128 570.214 707.588 570.754C707.06 571.294 706.634 571.942 706.31 572.698C705.986 573.454 705.77 574.3 705.662 575.236H717.524ZM705.572 576.334V576.676C705.572 578.02 705.728 579.202 706.04 580.222C706.352 581.242 706.796 582.1 707.372 582.796C707.948 583.48 708.644 583.996 709.46 584.344C710.276 584.692 711.188 584.866 712.196 584.866C713.096 584.866 713.876 584.77 714.536 584.578C715.196 584.374 715.748 584.152 716.192 583.912C716.648 583.66 717.008 583.438 717.272 583.246C717.536 583.042 717.728 582.94 717.848 582.94C718.004 582.94 718.124 583 718.208 583.12L718.676 583.696C718.388 584.056 718.004 584.392 717.524 584.704C717.056 585.016 716.528 585.286 715.94 585.514C715.364 585.73 714.74 585.904 714.068 586.036C713.408 586.168 712.742 586.234 712.07 586.234C710.846 586.234 709.73 586.024 708.722 585.604C707.714 585.172 706.85 584.548 706.13 583.732C705.41 582.916 704.852 581.92 704.456 580.744C704.072 579.556 703.88 578.2 703.88 576.676C703.88 575.392 704.06 574.21 704.42 573.13C704.792 572.038 705.32 571.102 706.004 570.322C706.7 569.53 707.546 568.912 708.542 568.468C709.55 568.024 710.69 567.802 711.962 567.802C712.97 567.802 713.906 567.976 714.77 568.324C715.634 568.672 716.384 569.182 717.02 569.854C717.656 570.514 718.154 571.33 718.514 572.302C718.886 573.274 719.072 574.39 719.072 575.65C719.072 575.914 719.036 576.094 718.964 576.19C718.892 576.286 718.772 576.334 718.604 576.334H705.572ZM723.319 584.614C723.319 584.386 723.361 584.17 723.445 583.966C723.529 583.762 723.643 583.588 723.787 583.444C723.943 583.288 724.117 583.168 724.309 583.084C724.513 582.988 724.735 582.94 724.975 582.94C725.203 582.94 725.419 582.988 725.623 583.084C725.827 583.168 726.001 583.288 726.145 583.444C726.301 583.588 726.421 583.762 726.505 583.966C726.601 584.17 726.649 584.386 726.649 584.614C726.649 584.854 726.601 585.076 726.505 585.28C726.421 585.472 726.301 585.646 726.145 585.802C726.001 585.946 725.827 586.06 725.623 586.144C725.419 586.228 725.203 586.27 724.975 586.27C724.507 586.27 724.111 586.114 723.787 585.802C723.475 585.478 723.319 585.082 723.319 584.614ZM761.097 581.716C761.217 581.716 761.319 581.758 761.403 581.842L762.123 582.616C761.595 583.18 761.019 583.69 760.395 584.146C759.783 584.59 759.105 584.974 758.361 585.298C757.629 585.61 756.819 585.85 755.931 586.018C755.055 586.198 754.089 586.288 753.033 586.288C751.269 586.288 749.649 585.982 748.173 585.37C746.709 584.746 745.449 583.87 744.393 582.742C743.337 581.602 742.515 580.228 741.927 578.62C741.351 577.012 741.063 575.224 741.063 573.256C741.063 571.324 741.363 569.56 741.963 567.964C742.563 566.368 743.403 565 744.483 563.86C745.563 562.708 746.859 561.82 748.371 561.196C749.883 560.56 751.551 560.242 753.375 560.242C755.115 560.242 756.657 560.512 758.001 561.052C759.345 561.592 760.569 562.354 761.673 563.338L761.115 564.148C761.019 564.292 760.869 564.364 760.665 564.364C760.521 564.364 760.287 564.232 759.963 563.968C759.639 563.704 759.189 563.416 758.613 563.104C758.037 562.78 757.317 562.486 756.453 562.222C755.601 561.958 754.575 561.826 753.375 561.826C751.839 561.826 750.429 562.09 749.145 562.618C747.873 563.146 746.775 563.902 745.851 564.886C744.939 565.87 744.225 567.07 743.709 568.486C743.193 569.902 742.935 571.492 742.935 573.256C742.935 575.056 743.193 576.664 743.709 578.08C744.237 579.496 744.957 580.696 745.869 581.68C746.781 582.652 747.855 583.402 749.091 583.93C750.339 584.446 751.683 584.704 753.123 584.704C754.035 584.704 754.845 584.644 755.553 584.524C756.273 584.404 756.933 584.224 757.533 583.984C758.133 583.744 758.691 583.45 759.207 583.102C759.723 582.754 760.233 582.346 760.737 581.878C760.797 581.83 760.857 581.794 760.917 581.77C760.977 581.734 761.037 581.716 761.097 581.716ZM772.978 567.802C774.262 567.802 775.408 568.024 776.416 568.468C777.436 568.9 778.294 569.518 778.99 570.322C779.686 571.126 780.214 572.098 780.574 573.238C780.946 574.366 781.132 575.632 781.132 577.036C781.132 578.44 780.946 579.706 780.574 580.834C780.214 581.962 779.686 582.928 778.99 583.732C778.294 584.536 777.436 585.154 776.416 585.586C775.408 586.018 774.262 586.234 772.978 586.234C771.694 586.234 770.542 586.018 769.522 585.586C768.514 585.154 767.656 584.536 766.948 583.732C766.252 582.928 765.718 581.962 765.346 580.834C764.986 579.706 764.806 578.44 764.806 577.036C764.806 575.632 764.986 574.366 765.346 573.238C765.718 572.098 766.252 571.126 766.948 570.322C767.656 569.518 768.514 568.9 769.522 568.468C770.542 568.024 771.694 567.802 772.978 567.802ZM772.978 584.884C774.046 584.884 774.976 584.704 775.768 584.344C776.572 583.972 777.238 583.444 777.766 582.76C778.306 582.076 778.708 581.254 778.972 580.294C779.236 579.322 779.368 578.236 779.368 577.036C779.368 575.848 779.236 574.768 778.972 573.796C778.708 572.824 778.306 571.996 777.766 571.312C777.238 570.616 776.572 570.082 775.768 569.71C774.976 569.338 774.046 569.152 772.978 569.152C771.91 569.152 770.974 569.338 770.17 569.71C769.378 570.082 768.712 570.616 768.172 571.312C767.644 571.996 767.242 572.824 766.966 573.796C766.702 574.768 766.57 575.848 766.57 577.036C766.57 578.236 766.702 579.322 766.966 580.294C767.242 581.254 767.644 582.076 768.172 582.76C768.712 583.444 769.378 583.972 770.17 584.344C770.974 584.704 771.91 584.884 772.978 584.884ZM785.96 586V568.09H786.914C787.214 568.09 787.388 568.24 787.436 568.54L787.598 571.132C788.294 570.136 789.092 569.332 789.992 568.72C790.892 568.108 791.906 567.802 793.034 567.802C794.342 567.802 795.386 568.18 796.166 568.936C796.958 569.692 797.492 570.742 797.768 572.086C797.984 571.354 798.284 570.718 798.668 570.178C799.064 569.638 799.514 569.194 800.018 568.846C800.522 568.486 801.068 568.222 801.656 568.054C802.256 567.886 802.868 567.802 803.492 567.802C804.38 567.802 805.178 567.952 805.886 568.252C806.594 568.54 807.194 568.972 807.686 569.548C808.178 570.124 808.556 570.832 808.82 571.672C809.084 572.512 809.216 573.472 809.216 574.552V586H807.506V574.552C807.506 572.8 807.128 571.468 806.372 570.556C805.616 569.632 804.536 569.17 803.132 569.17C802.508 569.17 801.908 569.284 801.332 569.512C800.768 569.74 800.264 570.082 799.82 570.538C799.388 570.982 799.04 571.54 798.776 572.212C798.524 572.884 798.398 573.664 798.398 574.552V586H796.67V574.552C796.67 572.812 796.322 571.48 795.626 570.556C794.942 569.632 793.934 569.17 792.602 569.17C791.63 569.17 790.73 569.458 789.902 570.034C789.074 570.61 788.336 571.408 787.688 572.428V586H785.96ZM816.657 582.094C817.005 582.61 817.365 583.048 817.737 583.408C818.121 583.756 818.523 584.044 818.943 584.272C819.363 584.488 819.807 584.644 820.275 584.74C820.755 584.836 821.259 584.884 821.787 584.884C822.843 584.884 823.767 584.692 824.559 584.308C825.351 583.924 826.011 583.384 826.539 582.688C827.079 581.98 827.481 581.14 827.745 580.168C828.021 579.184 828.159 578.104 828.159 576.928C828.159 574.264 827.667 572.308 826.683 571.06C825.699 569.8 824.289 569.17 822.453 569.17C821.265 569.17 820.191 569.476 819.231 570.088C818.271 570.7 817.413 571.552 816.657 572.644V582.094ZM816.585 571.312C817.377 570.232 818.301 569.374 819.357 568.738C820.425 568.102 821.619 567.784 822.939 567.784C825.135 567.784 826.845 568.546 828.069 570.07C829.305 571.594 829.923 573.88 829.923 576.928C829.923 578.236 829.749 579.46 829.401 580.6C829.065 581.728 828.561 582.712 827.889 583.552C827.229 584.38 826.413 585.034 825.441 585.514C824.481 585.994 823.371 586.234 822.111 586.234C820.899 586.234 819.849 586.012 818.961 585.568C818.073 585.124 817.305 584.47 816.657 583.606V592.336H814.929V568.09H815.883C816.183 568.09 816.357 568.24 816.405 568.54L816.585 571.312ZM836.682 559.81V586H834.954V559.81H836.682ZM855.301 575.236C855.301 574.276 855.163 573.418 854.887 572.662C854.623 571.894 854.245 571.246 853.753 570.718C853.261 570.19 852.673 569.788 851.989 569.512C851.317 569.224 850.573 569.08 849.757 569.08C848.833 569.08 848.005 569.224 847.273 569.512C846.541 569.8 845.905 570.214 845.365 570.754C844.837 571.294 844.411 571.942 844.087 572.698C843.763 573.454 843.547 574.3 843.439 575.236H855.301ZM843.349 576.334V576.676C843.349 578.02 843.505 579.202 843.817 580.222C844.129 581.242 844.573 582.1 845.149 582.796C845.725 583.48 846.421 583.996 847.237 584.344C848.053 584.692 848.965 584.866 849.973 584.866C850.873 584.866 851.653 584.77 852.313 584.578C852.973 584.374 853.525 584.152 853.969 583.912C854.425 583.66 854.785 583.438 855.049 583.246C855.313 583.042 855.505 582.94 855.625 582.94C855.781 582.94 855.901 583 855.985 583.12L856.453 583.696C856.165 584.056 855.781 584.392 855.301 584.704C854.833 585.016 854.305 585.286 853.717 585.514C853.141 585.73 852.517 585.904 851.845 586.036C851.185 586.168 850.519 586.234 849.847 586.234C848.623 586.234 847.507 586.024 846.499 585.604C845.491 585.172 844.627 584.548 843.907 583.732C843.187 582.916 842.629 581.92 842.233 580.744C841.849 579.556 841.657 578.2 841.657 576.676C841.657 575.392 841.837 574.21 842.197 573.13C842.569 572.038 843.097 571.102 843.781 570.322C844.477 569.53 845.323 568.912 846.319 568.468C847.327 568.024 848.467 567.802 849.739 567.802C850.747 567.802 851.683 567.976 852.547 568.324C853.411 568.672 854.161 569.182 854.797 569.854C855.433 570.514 855.931 571.33 856.291 572.302C856.663 573.274 856.849 574.39 856.849 575.65C856.849 575.914 856.813 576.094 856.741 576.19C856.669 576.286 856.549 576.334 856.381 576.334H843.349ZM866.336 586.288C865.124 586.288 864.176 585.952 863.492 585.28C862.82 584.608 862.484 583.57 862.484 582.166V569.926H859.91C859.778 569.926 859.67 569.89 859.586 569.818C859.502 569.746 859.46 569.644 859.46 569.512V568.846L862.52 568.63L862.952 562.222C862.976 562.114 863.024 562.018 863.096 561.934C863.168 561.85 863.27 561.808 863.402 561.808H864.212V568.648H869.864V569.926H864.212V582.076C864.212 582.568 864.272 582.994 864.392 583.354C864.524 583.702 864.698 583.99 864.914 584.218C865.142 584.446 865.406 584.614 865.706 584.722C866.006 584.83 866.33 584.884 866.678 584.884C867.11 584.884 867.482 584.824 867.794 584.704C868.106 584.572 868.376 584.434 868.604 584.29C868.832 584.134 869.018 583.996 869.162 583.876C869.306 583.744 869.42 583.678 869.504 583.678C869.6 583.678 869.696 583.738 869.792 583.858L870.26 584.614C869.804 585.118 869.222 585.526 868.514 585.838C867.818 586.138 867.092 586.288 866.336 586.288ZM886.274 575.236C886.274 574.276 886.136 573.418 885.86 572.662C885.596 571.894 885.218 571.246 884.726 570.718C884.234 570.19 883.646 569.788 882.962 569.512C882.29 569.224 881.546 569.08 880.73 569.08C879.806 569.08 878.978 569.224 878.246 569.512C877.514 569.8 876.878 570.214 876.338 570.754C875.81 571.294 875.384 571.942 875.06 572.698C874.736 573.454 874.52 574.3 874.412 575.236H886.274ZM874.322 576.334V576.676C874.322 578.02 874.478 579.202 874.79 580.222C875.102 581.242 875.546 582.1 876.122 582.796C876.698 583.48 877.394 583.996 878.21 584.344C879.026 584.692 879.938 584.866 880.946 584.866C881.846 584.866 882.626 584.77 883.286 584.578C883.946 584.374 884.498 584.152 884.942 583.912C885.398 583.66 885.758 583.438 886.022 583.246C886.286 583.042 886.478 582.94 886.598 582.94C886.754 582.94 886.874 583 886.958 583.12L887.426 583.696C887.138 584.056 886.754 584.392 886.274 584.704C885.806 585.016 885.278 585.286 884.69 585.514C884.114 585.73 883.49 585.904 882.818 586.036C882.158 586.168 881.492 586.234 880.82 586.234C879.596 586.234 878.48 586.024 877.472 585.604C876.464 585.172 875.6 584.548 874.88 583.732C874.16 582.916 873.602 581.92 873.206 580.744C872.822 579.556 872.63 578.2 872.63 576.676C872.63 575.392 872.81 574.21 873.17 573.13C873.542 572.038 874.07 571.102 874.754 570.322C875.45 569.53 876.296 568.912 877.292 568.468C878.3 568.024 879.44 567.802 880.712 567.802C881.72 567.802 882.656 567.976 883.52 568.324C884.384 568.672 885.134 569.182 885.77 569.854C886.406 570.514 886.904 571.33 887.264 572.302C887.636 573.274 887.822 574.39 887.822 575.65C887.822 575.914 887.786 576.094 887.714 576.19C887.642 576.286 887.522 576.334 887.354 576.334H874.322ZM892.069 584.614C892.069 584.386 892.111 584.17 892.195 583.966C892.279 583.762 892.393 583.588 892.537 583.444C892.693 583.288 892.867 583.168 893.059 583.084C893.263 582.988 893.485 582.94 893.725 582.94C893.953 582.94 894.169 582.988 894.373 583.084C894.577 583.168 894.751 583.288 894.895 583.444C895.051 583.588 895.171 583.762 895.255 583.966C895.351 584.17 895.399 584.386 895.399 584.614C895.399 584.854 895.351 585.076 895.255 585.28C895.171 585.472 895.051 585.646 894.895 585.802C894.751 585.946 894.577 586.06 894.373 586.144C894.169 586.228 893.953 586.27 893.725 586.27C893.257 586.27 892.861 586.114 892.537 585.802C892.225 585.478 892.069 585.082 892.069 584.614Z" fill="black"/>
<path d="M334.651 378.016C334.081 378.016 333.379 378.016 332.545 378.016C331.712 377.973 330.878 377.951 330.044 377.951C329.255 377.907 328.553 377.885 327.938 377.885C325.964 377.885 323.946 377.907 321.884 377.951C319.865 377.995 317.869 378.016 315.895 378.016V361.168C317.869 361.168 319.865 361.19 321.884 361.234C323.946 361.278 325.964 361.3 327.938 361.3C328.553 361.3 329.255 361.3 330.044 361.3C330.878 361.256 331.712 361.234 332.545 361.234C333.379 361.19 334.081 361.168 334.651 361.168H350.841C351.456 361.168 352.158 361.19 352.948 361.234C353.781 361.234 354.593 361.256 355.383 361.3C356.216 361.3 356.918 361.3 357.489 361.3C359.463 361.3 361.481 361.278 363.543 361.234C365.606 361.19 367.624 361.168 369.598 361.168V378.016C367.624 378.016 365.606 377.995 363.543 377.951C361.481 377.907 359.463 377.885 357.489 377.885C356.918 377.885 356.216 377.907 355.383 377.951C354.593 377.951 353.781 377.973 352.948 378.016C352.158 378.016 351.456 378.016 350.841 378.016H334.651ZM328.07 415.925C326.447 416.232 324.692 416.43 322.805 416.517C320.962 416.605 319.361 416.649 318.001 416.649C316.772 416.649 315.192 416.605 313.262 416.517C311.331 416.43 309.554 416.232 307.931 415.925V326.024C309.554 325.717 311.331 325.519 313.262 325.431C315.192 325.344 316.772 325.3 318.001 325.3C319.361 325.3 320.962 325.344 322.805 325.431C324.692 325.519 326.447 325.717 328.07 326.024V351.559C328.07 353.402 328.048 355.048 328.004 356.495C327.96 357.899 327.938 359.501 327.938 361.3V377.885C327.938 379.64 327.96 381.241 328.004 382.689C328.048 384.137 328.07 385.782 328.07 387.625V415.925ZM357.357 387.625C357.357 385.782 357.379 384.137 357.423 382.689C357.467 381.241 357.489 379.64 357.489 377.885V361.3C357.489 359.501 357.467 357.899 357.423 356.495C357.379 355.048 357.357 353.402 357.357 351.559V326.024C359.024 325.717 360.779 325.519 362.622 325.431C364.465 325.344 366.066 325.3 367.426 325.3C368.699 325.3 370.3 325.344 372.231 325.431C374.161 325.519 375.916 325.717 377.496 326.024V415.925C375.785 416.232 374.074 416.43 372.363 416.517C370.651 416.605 369.072 416.649 367.624 416.649C366.264 416.649 364.64 416.605 362.754 416.517C360.867 416.43 359.068 416.232 357.357 415.925V387.625ZM398.236 326.024C399.816 325.717 401.571 325.519 403.502 325.431C405.476 325.344 407.077 325.3 408.306 325.3C409.666 325.3 411.268 325.344 413.11 325.431C414.997 325.519 416.752 325.717 418.375 326.024V415.925C416.752 416.232 414.997 416.43 413.11 416.517C411.268 416.605 409.666 416.649 408.306 416.649C407.077 416.649 405.476 416.605 403.502 416.517C401.571 416.43 399.816 416.232 398.236 415.925V326.024ZM511.11 370.909C511.11 376.042 510.759 380.978 510.057 385.717C509.355 390.455 507.951 394.887 505.845 399.011C503.783 403.135 500.667 406.821 496.499 410.068C494.481 411.647 492.046 412.92 489.194 413.885C486.386 414.85 483.512 415.552 480.572 415.991C477.633 416.43 474.934 416.649 472.477 416.649C468.748 416.649 465.106 416.627 461.552 416.583C458.042 416.539 454.51 416.473 450.956 416.386C447.446 416.298 443.783 416.21 439.965 416.122L439.044 415.267V326.682L439.965 325.826C443.739 325.695 447.38 325.585 450.89 325.497C454.444 325.41 457.998 325.366 461.552 325.366C465.106 325.322 468.748 325.3 472.477 325.3C474.934 325.3 477.633 325.519 480.572 325.958C483.556 326.397 486.452 327.099 489.26 328.064C492.112 329.029 494.525 330.302 496.499 331.881C500.623 335.128 503.717 338.814 505.779 342.938C507.885 347.062 509.289 351.494 509.991 356.232C510.737 360.927 511.11 365.819 511.11 370.909ZM490.51 370.909C490.51 367.486 490.291 364.02 489.852 360.51C489.457 357 488.645 353.775 487.417 350.835C486.188 347.852 484.368 345.461 481.954 343.662C479.585 341.863 476.426 340.963 472.477 340.963C470.196 340.963 468.002 340.963 465.896 340.963C463.79 340.92 461.508 340.876 459.051 340.832V401.051C461.508 401.007 463.79 400.985 465.896 400.985C468.002 400.985 470.196 400.985 472.477 400.985C476.426 400.985 479.585 400.086 481.954 398.287C484.368 396.444 486.188 394.053 487.417 391.113C488.645 388.13 489.457 384.883 489.852 381.373C490.291 377.819 490.51 374.331 490.51 370.909ZM546.46 416.254H537.97C534.416 416.254 531.586 415.223 529.48 413.161C527.374 411.055 526.321 408.159 526.321 404.473V326.09L527.242 325.168H534.613C538.518 325.168 541.458 326.177 543.432 328.196C545.451 330.214 546.46 333.461 546.46 337.936V416.254ZM581.999 398.945C581.999 405.351 580.968 409.848 578.906 412.437C576.844 414.982 573.334 416.254 568.376 416.254H537.97L527.242 401.709C532.771 400.744 538.255 400.042 543.696 399.603C549.18 399.165 554.182 398.945 558.701 398.945H581.999Z" fill="#38A3A5"/>
<path d="M658.739 353.665C658.739 357.878 657.927 361.607 656.304 364.854C654.724 368.101 652.684 370.821 650.183 373.015C647.726 375.165 645.181 376.744 642.549 377.753C645.006 378.587 647.046 380.079 648.669 382.229C650.293 384.378 651.609 386.879 652.618 389.731L656.83 401.446C657.576 403.596 658.475 405.483 659.528 407.106C660.625 408.686 661.854 410.024 663.214 411.121C661.986 412.832 660.121 414.258 657.62 415.399C655.119 416.495 652.552 417.044 649.92 417.044C646.278 417.044 643.624 416.079 641.956 414.148C640.333 412.174 638.841 409.256 637.481 405.395L632.479 391.113C631.689 388.744 630.483 386.726 628.859 385.059C627.28 383.347 624.691 382.492 621.093 382.492H606.746V367.42C608.457 367.333 610.563 367.245 613.064 367.157C615.609 367.069 618.022 367.004 620.304 366.96C622.585 366.872 624.252 366.828 625.305 366.828C628.772 366.828 631.426 366.214 633.269 364.985C635.156 363.713 636.45 362.068 637.152 360.049C637.854 358.031 638.205 355.903 638.205 353.665C638.205 351.296 637.854 349.124 637.152 347.15C636.45 345.176 635.156 343.596 633.269 342.411C631.426 341.183 628.772 340.569 625.305 340.569C624.384 340.569 623.353 340.569 622.212 340.569C621.071 340.569 619.887 340.569 618.658 340.569C617.43 340.525 616.179 340.481 614.907 340.437V415.925C613.24 416.232 611.507 416.43 609.708 416.517C607.909 416.605 606.307 416.649 604.903 416.649C603.675 416.649 602.117 416.605 600.231 416.517C598.344 416.43 596.589 416.232 594.965 415.925V326.682L595.887 325.826C601.415 325.695 606.746 325.585 611.88 325.497C617.013 325.366 622.037 325.3 626.951 325.3C633.05 325.3 638.49 326.309 643.273 328.327C648.055 330.302 651.828 333.395 654.592 337.607C657.357 341.775 658.739 347.128 658.739 353.665ZM689.682 370.909C689.682 374.463 689.88 378.082 690.275 381.768C690.713 385.453 691.525 388.854 692.71 391.969C693.938 395.084 695.737 397.607 698.107 399.537C700.476 401.424 703.613 402.367 707.518 402.367C711.423 402.367 714.56 401.424 716.929 399.537C719.298 397.607 721.075 395.084 722.26 391.969C723.489 388.854 724.3 385.453 724.695 381.768C725.134 378.082 725.353 374.463 725.353 370.909C725.353 367.355 725.134 363.757 724.695 360.115C724.3 356.43 723.489 353.051 722.26 349.98C721.075 346.865 719.298 344.364 716.929 342.477C714.56 340.547 711.423 339.581 707.518 339.581C703.613 339.581 700.476 340.547 698.107 342.477C695.737 344.364 693.938 346.865 692.71 349.98C691.525 353.051 690.713 356.43 690.275 360.115C689.88 363.757 689.682 367.355 689.682 370.909ZM668.754 370.909C668.754 361.563 670.158 353.38 672.966 346.36C675.774 339.34 680.03 333.878 685.734 329.973C691.481 326.068 698.743 324.115 707.518 324.115C716.381 324.115 723.664 326.09 729.368 330.038C735.116 333.987 739.372 339.472 742.136 346.492C744.944 353.512 746.348 361.651 746.348 370.909C746.348 380.254 744.944 388.459 742.136 395.523C739.328 402.543 735.05 408.027 729.302 411.976C723.598 415.881 716.337 417.834 707.518 417.834C700.893 417.834 695.145 416.715 690.275 414.477C685.405 412.196 681.368 408.971 678.165 404.803C675.006 400.634 672.637 395.676 671.057 389.929C669.522 384.181 668.754 377.841 668.754 370.909ZM830.858 382.952C830.858 390.367 829.475 396.686 826.711 401.907C823.947 407.084 819.933 411.033 814.667 413.753C809.402 416.473 803.018 417.834 795.516 417.834C788.057 417.834 781.695 416.473 776.43 413.753C771.209 411.033 767.216 407.084 764.452 401.907C761.688 396.686 760.305 390.367 760.305 382.952V326.09L761.161 325.168H768.532C772.437 325.168 775.399 326.177 777.417 328.196C779.435 330.214 780.444 333.461 780.444 337.936V383.15C780.444 389.336 781.607 394.009 783.933 397.168C786.258 400.283 790.141 401.841 795.582 401.841C801.022 401.841 804.905 400.283 807.23 397.168C809.556 394.009 810.719 389.336 810.719 383.15V326.024C812.386 325.717 814.097 325.519 815.852 325.431C817.607 325.344 819.165 325.3 820.525 325.3C821.797 325.3 823.421 325.344 825.395 325.431C827.413 325.519 829.234 325.717 830.858 326.024V382.952ZM841.237 342.74C840.929 341.249 840.71 339.779 840.578 338.331C840.491 336.883 840.447 335.589 840.447 334.448C840.447 333.307 840.491 331.991 840.578 330.499C840.71 329.007 840.929 327.516 841.237 326.024H905.734C906.392 328.305 906.721 330.872 906.721 333.724C906.721 337.015 905.865 339.34 904.154 340.7C902.443 342.06 899.767 342.74 896.125 342.74H891.65C890.684 342.74 889.302 342.718 887.503 342.675C885.748 342.631 884.388 342.609 883.423 342.609H863.284C862.319 342.609 860.959 342.631 859.204 342.675C857.449 342.718 856.067 342.74 855.057 342.74H841.237ZM863.284 352.349C863.284 350.55 863.306 348.949 863.35 347.545C863.394 346.097 863.416 344.452 863.416 342.609V334.316H883.291V342.609C883.291 344.452 883.313 346.097 883.357 347.545C883.401 348.949 883.423 350.55 883.423 352.349V415.925C881.712 416.232 879.957 416.43 878.158 416.517C876.359 416.605 874.758 416.649 873.354 416.649C871.993 416.649 870.392 416.605 868.549 416.517C866.75 416.43 864.995 416.232 863.284 415.925V352.349ZM916.703 326.945L917.624 326.024H936.447V342.543C936.447 344.386 936.469 346.009 936.513 347.413C936.557 348.817 936.579 350.419 936.579 352.218V390.521C936.579 392.144 936.557 393.636 936.513 394.996C936.469 396.356 936.447 397.892 936.447 399.603V416.254H928.22C924.623 416.254 921.793 415.201 919.73 413.095C917.712 410.989 916.703 408.115 916.703 404.473V326.945ZM966.129 362.55C966.524 363.779 966.809 365.183 966.985 366.762C967.204 368.298 967.314 369.614 967.314 370.711C967.314 371.852 967.204 373.19 966.985 374.726C966.809 376.218 966.524 377.6 966.129 378.872H945.398C944.301 378.872 942.765 378.872 940.791 378.872C938.86 378.828 936.864 378.784 934.802 378.74C932.783 378.697 931.072 378.675 929.668 378.675V362.748C931.072 362.704 932.783 362.682 934.802 362.682C936.864 362.638 938.86 362.616 940.791 362.616C942.765 362.572 944.301 362.55 945.398 362.55H966.129ZM973.829 326.024C974.136 327.516 974.334 328.92 974.421 330.236C974.509 331.552 974.553 332.781 974.553 333.921C974.553 335.062 974.4 336.466 974.092 338.133C973.829 339.757 973.434 341.336 972.908 342.872H945.398C944.301 342.872 942.765 342.872 940.791 342.872C938.86 342.828 936.864 342.784 934.802 342.74C932.783 342.697 931.072 342.653 929.668 342.609V326.024H973.829ZM977.054 399.406C977.054 404.978 976.177 409.19 974.421 412.042C972.666 414.85 969.134 416.254 963.826 416.254H929.668V400.064C932.389 399.932 934.999 399.801 937.5 399.669C940.045 399.494 942.897 399.406 946.056 399.406H977.054Z" fill="#687575"/>
<path fill-rule="evenodd" clip-rule="evenodd" d="M728.702 188.598C728.231 240.984 685.617 283.307 633.119 283.307C590.055 283.307 553.643 254.829 541.687 215.678C540.642 215.833 539.573 215.917 538.487 215.925C550.623 256.704 588.399 286.441 633.119 286.441C687.118 286.441 730.99 243.086 731.827 189.287C730.756 189.133 729.711 188.901 728.702 188.598ZM725.819 153.693C711.955 115.937 675.683 89 633.119 89C584.432 89 543.977 124.245 535.876 170.613C536.678 170.527 537.492 170.483 538.317 170.483C538.572 170.483 538.827 170.488 539.081 170.496C547.191 125.926 586.209 92.134 633.119 92.134C674.513 92.134 709.761 118.445 723.051 155.256C723.924 154.67 724.849 154.147 725.819 153.693Z" fill="#595E5E"/>
<circle cx="539.883" cy="193.205" r="15.6699" stroke="#595E5E" stroke-width="4.70097"/>
<circle cx="615.099" cy="241.781" r="15.6699" stroke="#595E5E" stroke-width="4.70097"/>
<circle cx="671.51" cy="139.927" r="15.6699" stroke="#595E5E" stroke-width="4.70097"/>
<circle cx="737.324" cy="169.7" r="15.6699" stroke="#595E5E" stroke-width="4.70097"/>
<line x1="556.772" y1="202.738" x2="599.08" y2="230.944" stroke="#595E5E" stroke-width="1.56699"/>
<line x1="662.002" y1="156.774" x2="622.828" y2="224.155" stroke="#595E5E" stroke-width="1.56699"/>
<line x1="689.866" y1="147.838" x2="719.639" y2="161.94" stroke="#595E5E" stroke-width="1.56699"/>
</svg>
